<svg width="372" height="122" viewBox="0 0 372 122" fill="none" xmlns="http://www.w3.org/2000/svg">
<path d="M92.165 56.8322H99.333C101.324 56.8322 103.003 56.1215 104.368 54.6993C105.733 53.2772 106.416 51.6555 106.416 49.8351V0.00109863H120.666V39.6808C120.666 46.2228 118.249 51.9118 113.413 56.7472C108.578 61.5826 102.889 64.0001 96.3467 64.0001H78V0.00109863H92.165V56.8322ZM144.789 64.0001H130.539V0.00012207H144.789V64.0001ZM183.203 0.00012207C187.128 0.00012207 190.485 1.42237 193.272 4.26672C196.06 7.05422 197.454 10.3537 197.454 14.1652V17.8351C197.454 21.874 196.287 25.0884 193.955 27.4777C191.623 29.8668 188.038 31.3744 183.203 32.0001C187.982 32.0001 191.538 33.4504 193.87 36.3517C196.259 39.1961 197.454 42.4674 197.454 46.1652V49.8341C197.454 53.7025 196.032 57.0309 193.188 59.8185C190.4 62.606 187.072 64.0001 183.203 64.0001H154.788V0.00012207H183.203ZM242.396 7.16809H221.062V28.5011H235.312V35.4982H221.062V56.8322H242.396V64.0001H206.897V0.00012207H242.396V7.16809ZM272.257 0.00012207C276.808 0.00012207 280.307 1.19483 282.753 3.58411C285.199 5.9165 286.423 9.4435 286.423 14.1652H279.34C278.714 9.44358 276.467 7.08319 272.599 7.08313C270.152 7.08313 268.275 7.68046 266.967 8.87512C265.715 10.0698 265.089 11.8618 265.089 14.2511C265.089 16.0714 265.801 17.7213 267.223 19.2003L282.241 36.1808C285.029 39.1959 286.423 42.5243 286.423 46.1652V49.8341C286.423 53.7025 285.029 57.0309 282.241 59.8185C279.454 62.606 276.125 64.0001 272.257 64.0001H265.089C260.481 64.0001 256.926 62.8334 254.423 60.5011C252.09 57.998 250.924 54.4421 250.924 49.8341H258.007L257.921 50.9435C257.921 52.8777 258.632 54.357 260.055 55.381C261.534 56.348 263.212 56.8321 265.089 56.8322C267.592 56.8322 269.413 56.2348 270.551 55.0402C271.688 53.7887 272.257 51.9964 272.257 49.6642C272.257 47.8438 271.546 46.1931 270.124 44.714L255.02 27.8185C252.289 24.7467 250.924 21.4188 250.924 17.8351V14.1652C250.924 10.3538 252.289 7.05418 255.02 4.26672C257.75 1.42238 261.107 0.000202217 265.089 0.00012207H272.257ZM168.953 56.8322H176.121C178.055 56.8321 179.705 56.1486 181.07 54.7833C182.492 53.3612 183.203 51.7113 183.203 49.8341V42.6661C183.203 37.8878 180.843 35.4983 176.121 35.4982H168.953V56.8322ZM168.953 28.5011H176.121C177.998 28.501 179.648 27.8185 181.07 26.4532C182.492 25.0311 183.203 23.3242 183.203 21.3331V14.1652C183.203 12.2879 182.492 10.6662 181.07 9.3009C179.705 7.87885 178.055 7.16817 176.121 7.16809H168.953V28.5011Z" fill="#212A4A"/>
<path d="M283.625 33.8373C285.175 33.8373 286.405 34.1221 287.317 34.6918C288.957 35.7171 289.778 36.8565 289.778 38.1097C289.778 39.3402 289.55 40.6505 289.094 42.0404C288.639 43.4303 288.035 44.809 287.283 46.1761C286.554 47.5433 285.71 48.8992 284.753 50.2435L270.104 69.0287C269.124 70.282 267.268 74.6377 266.516 75.8226C265.195 78.6709 264.534 81.1091 264.534 83.1371C264.534 86.0537 265.593 87.5121 267.712 87.5121C268.92 87.5121 271.096 86.2474 274.241 83.7181L278.274 80.3002C278.603 80.0064 278.932 79.7276 279.26 79.4642C279.296 79.4013 279.331 79.3378 279.368 79.2748C281.122 76.2898 283.355 73.7832 286.067 71.7552C288.778 69.7273 291.296 68.7133 293.621 68.7133C296.947 68.7133 298.725 69.6475 298.953 71.516C299.021 72.0856 299.055 72.7465 299.055 73.4984C299.055 74.2504 298.873 75.1163 298.508 76.0961C298.167 77.0531 297.711 78.0215 297.141 79.0013C296.594 79.9584 295.979 80.904 295.295 81.8383C294.635 82.7497 293.997 83.5814 293.381 84.3334C292.196 85.7689 291.251 86.8057 290.544 87.4437C290.544 88.2184 291.126 89.016 292.288 89.8363C293.381 90.611 294.304 90.9984 295.056 90.9984C295.831 90.9984 296.731 90.8161 297.756 90.4515C298.805 90.087 299.875 89.597 300.969 88.9818C302.086 88.3666 303.214 87.6602 304.353 86.8627C305.515 86.0652 306.654 85.2448 307.771 84.4017L314.026 79.514C314.094 79.4646 314.162 79.4166 314.23 79.3685C315.831 76.6271 317.836 74.3736 320.247 72.6097C323.209 70.4222 326.251 69.3285 329.373 69.3285C332.494 69.3285 334.055 70.5476 334.055 72.9857C334.055 74.5124 332.756 76.7797 330.159 79.7875C327.561 82.7725 326.262 85.2334 326.262 87.1703C326.262 88.2184 326.957 88.7426 328.347 88.7426C331.173 88.7426 335.981 85.222 342.771 78.181L346.086 74.8314C348.342 72.6211 349.835 71.516 350.564 71.516C351.293 71.516 351.943 71.6413 352.512 71.892C353.082 72.1426 353.583 72.4616 354.016 72.849C354.905 73.6465 355.349 74.501 355.349 75.4125C355.349 76.3011 355.247 77.2924 355.042 78.3861C354.859 79.4571 354.563 80.6648 354.153 82.0092C353.401 84.5157 352.045 87.8767 350.085 92.0922L348.684 95.1L354.495 89.8363L366.389 79.6508C367.597 78.7393 368.599 78.2836 369.397 78.2836C371.129 78.2836 371.995 79.1153 371.995 80.7787C371.995 82.4877 370.878 84.6866 368.645 87.3754C367.961 88.2185 367.221 89.0046 366.423 89.7338L358.357 96.7406L342.634 110.036C341.244 111.244 340.196 112.201 339.49 112.908C338.647 114.275 337.986 115.289 337.507 115.95C337.052 116.633 336.596 117.351 336.14 118.103C335.684 118.878 335.24 119.538 334.807 120.085C333.873 121.27 332.939 121.863 332.004 121.863C331.025 121.863 330.079 121.464 329.167 120.666C327.481 119.185 326.638 117.864 326.638 116.702C326.638 115.539 326.957 114.184 327.595 112.634C328.233 111.107 329.065 109.353 330.09 107.37L337.336 94.0062C333.85 97.1507 331.116 99.2357 329.133 100.261C327.151 101.264 325.476 101.925 324.109 102.244C322.764 102.585 321.329 102.756 319.802 102.756C318.298 102.756 316.977 102.437 315.837 101.799C314.698 101.184 313.752 100.352 313 99.3041C311.75 97.5255 311.037 95.2859 310.859 92.5853C310.741 92.6826 310.624 92.7812 310.505 92.8783C308.888 94.1999 307.201 95.4646 305.447 96.6722C303.715 97.8571 301.983 98.9053 300.251 99.8168C298.52 100.705 296.833 101.412 295.193 101.936C293.552 102.483 291.934 102.756 290.339 102.756C288.767 102.756 287.126 102.38 285.417 101.628C283.731 100.854 282.227 99.8282 280.906 98.5521C278.698 96.4127 277.319 94.0935 276.769 91.5941C275.907 92.3155 274.974 93.0749 273.967 93.8695C268.293 98.3129 263.736 100.535 260.295 100.535C257.698 100.535 255.738 99.4408 254.417 97.2533C253.619 95.9317 252.97 93.9948 252.468 91.4427L249.426 93.6302C241.064 99.418 234.82 102.312 230.696 102.312C227.255 102.312 224.498 101.059 222.424 98.5521C220.601 96.2963 219.69 93.596 219.69 90.4515C219.69 86.988 220.875 84.2536 223.245 82.2484C228.075 78.1924 234.08 74.8542 241.257 72.2338C244.174 71.1628 246.02 70.6273 246.794 70.6273C247.569 70.6273 248.276 70.764 248.914 71.0375C249.574 71.2881 250.224 71.6185 250.862 72.0287C252.366 73.0541 253.118 74.0453 253.118 75.0023C253.118 75.777 252.639 76.4037 251.682 76.8822C251.386 77.0417 250.885 77.2582 250.178 77.5316C249.472 77.8051 248.606 78.181 247.581 78.6595C244.823 79.9584 242.135 81.5306 239.514 83.3763C237.646 84.9714 236.711 86.2474 236.711 87.2045C236.711 88.1387 237.372 88.6058 238.694 88.6058C239.788 88.6058 241.975 87.6374 245.256 85.7006C245.256 85.7006 246.225 85.1081 248.162 83.9232C250.235 82.6244 251.899 81.4395 253.152 80.3685C253.152 80.3685 253.676 78.6595 254.724 75.2416C256.661 69.1348 267.609 50.8903 269.979 46.9027C274.172 38.8591 279.387 33.8373 283.625 33.8373ZM302.352 50.222C303.423 50.222 304.221 50.3474 304.745 50.598C305.291 50.8259 305.736 51.1335 306.078 51.5209C306.761 52.2956 307.103 53.0932 307.103 53.9135C307.103 54.711 307 55.4402 306.795 56.101C306.613 56.7617 306.34 57.4454 305.975 58.1517C305.611 58.8581 305.166 59.5645 304.642 60.2709C304.118 60.9772 303.526 61.6153 302.865 62.1849C302.204 62.7318 301.486 63.1875 300.711 63.5521C299.937 63.8939 299.071 64.0648 298.114 64.0648C297.157 64.0648 296.234 63.9053 295.345 63.5863C294.457 63.2673 293.682 62.8229 293.021 62.2533C291.585 61.0228 290.868 59.4505 290.868 57.5365C290.868 54.597 293.329 52.4095 298.25 50.974C299.914 50.4727 301.281 50.222 302.352 50.222Z" fill="#F077AA"/>
<path d="M64 32C64 14.3269 49.6731 -2.17128e-06 32 -1.39876e-06C14.3269 -6.26248e-07 -2.17128e-06 14.3269 -1.39876e-06 32C-6.26248e-07 49.6731 14.3269 64 32 64C49.6731 64 64 49.6731 64 32Z" fill="#212A4A"/>
<path d="M11.0211 17.7777L11.1146 24.6191C17.7052 27.075 22.9578 23.1395 29.5111 26.1392C32.5199 27.5165 34.6527 33.6358 36.0936 35.1795C41.664 29.6476 48.7946 28.971 51.3971 27.0575C54.3792 24.8647 54.0614 17.2689 57.7166 20.4967C60.2407 38.6704 45.2364 40.179 39.1786 41.407C38.7673 44.9505 38.6832 49.529 36.1591 48.9501C32.6067 48.1432 32.9245 41.2316 32.0084 39.758C31.8121 39.4423 28.4092 37.6705 27.839 37.4951C22.4262 35.8286 13.4704 38.8107 8.86161 35.39C4.25283 31.9693 5.38399 13.0062 11.0118 17.7601L11.0211 17.7777Z" fill="white"/>
</svg>
