<svg width="535" height="321" viewBox="0 0 535 321" fill="none" xmlns="http://www.w3.org/2000/svg">
<path opacity="0.5" d="M63 45V307" stroke="#F0F0F0"/>
<path opacity="0.5" d="M155 45V307" stroke="#F0F0F0"/>
<path opacity="0.5" d="M247 45V307" stroke="#F0F0F0"/>
<path opacity="0.5" d="M339 45V307" stroke="#F0F0F0"/>
<path opacity="0.5" d="M431 45V307" stroke="#F0F0F0"/>
<path opacity="0.5" d="M523 45V307" stroke="#F0F0F0"/>
<path d="M15.5 222.5C26.6667 191 44.1 175.7 78.5 190.5C121.5 209 134 262 185.5 228.5C249.915 186.599 275.353 135.805 329 132C399.5 127 370.5 262.5 439 208.5C502.164 158.707 490.5 72.5 526.5 69" stroke="url(#paint0_radial_38_174)" stroke-width="12" stroke-dasharray="3 9"/>
<path opacity="0.5" d="M9.5 0V307.5H535" stroke="url(#paint1_radial_38_174)"/>
<path opacity="0.2" d="M12.7416 319.078C12.4108 319.078 12.114 319.02 11.8509 318.902C11.5879 318.783 11.3796 318.608 11.2259 318.379C11.0723 318.15 10.9955 317.871 10.9955 317.543V317.43H11.8666V317.543C11.8666 317.702 11.903 317.841 11.9759 317.961C12.0515 318.081 12.1543 318.173 12.2845 318.238C12.4173 318.301 12.5697 318.332 12.7416 318.332C12.9265 318.332 13.084 318.293 13.2142 318.215C13.3444 318.137 13.4434 318.022 13.5111 317.871C13.5788 317.717 13.6127 317.53 13.6127 317.309V313.18H14.4838V317.309C14.4838 317.681 14.4121 318 14.2689 318.266C14.1283 318.529 13.9278 318.73 13.6673 318.871C13.4069 319.009 13.0983 319.078 12.7416 319.078ZM16.3044 319.094C16.0283 319.094 15.7783 319.043 15.5544 318.941C15.3304 318.837 15.1533 318.686 15.0231 318.488C14.8929 318.29 14.8278 318.049 14.8278 317.766C14.8278 317.518 14.8747 317.316 14.9684 317.16C15.0648 317.001 15.1937 316.875 15.3552 316.781C15.5166 316.688 15.6963 316.617 15.8942 316.57C16.0921 316.523 16.2953 316.487 16.5036 316.461C16.7666 316.432 16.9789 316.408 17.1403 316.387C17.3018 316.366 17.419 316.333 17.4919 316.289C17.5674 316.242 17.6052 316.168 17.6052 316.066V316.047C17.6052 315.799 17.5348 315.608 17.3942 315.473C17.2562 315.337 17.0505 315.27 16.777 315.27C16.4932 315.27 16.2679 315.332 16.1013 315.457C15.9372 315.579 15.8239 315.719 15.7614 315.875L14.9606 315.691C15.057 315.426 15.1963 315.212 15.3786 315.051C15.5635 314.887 15.7744 314.767 16.0114 314.691C16.251 314.616 16.501 314.578 16.7614 314.578C16.9359 314.578 17.1208 314.599 17.3161 314.641C17.5114 314.68 17.695 314.754 17.8669 314.863C18.0414 314.97 18.1833 315.124 18.2927 315.324C18.402 315.525 18.4567 315.784 18.4567 316.102V319H17.6247V318.402H17.5934C17.5414 318.509 17.4593 318.616 17.3473 318.723C17.238 318.829 17.0973 318.918 16.9255 318.988C16.7536 319.059 16.5466 319.094 16.3044 319.094ZM16.488 318.414C16.7249 318.414 16.9268 318.368 17.0934 318.277C17.2601 318.184 17.3877 318.061 17.4763 317.91C17.5648 317.759 17.6091 317.599 17.6091 317.43V316.863C17.5778 316.892 17.5192 316.919 17.4333 316.945C17.3473 316.971 17.2497 316.993 17.1403 317.012C17.0309 317.03 16.9242 317.047 16.82 317.062C16.7158 317.076 16.6286 317.086 16.5583 317.094C16.3942 317.117 16.2445 317.154 16.1091 317.203C15.9736 317.25 15.8643 317.32 15.7809 317.414C15.7002 317.505 15.6598 317.626 15.6598 317.777C15.6598 317.988 15.738 318.147 15.8942 318.254C16.0505 318.361 16.2484 318.414 16.488 318.414ZM19.7969 316.41V319H18.9531V314.633H19.7734V315.352H19.832C19.931 315.115 20.0859 314.927 20.2969 314.789C20.5078 314.648 20.7786 314.578 21.1094 314.578C21.4062 314.578 21.6654 314.641 21.8867 314.766C22.1107 314.888 22.2839 315.072 22.4062 315.316C22.5312 315.561 22.5938 315.865 22.5938 316.227V319H21.75V316.328C21.75 316.013 21.6667 315.766 21.5 315.586C21.3333 315.404 21.1068 315.312 20.8203 315.312C20.625 315.312 20.4492 315.357 20.293 315.445C20.1393 315.531 20.0182 315.655 19.9297 315.816C19.8411 315.978 19.7969 316.176 19.7969 316.41Z" fill="url(#paint2_linear_38_174)"/>
<path opacity="0.2" d="M57.14 319V313.18H60.7533V313.934H58.0189V315.82H60.4916V316.57H58.0189V319H57.14ZM62.6677 319.09C62.2406 319.09 61.8708 318.997 61.5583 318.812C61.2458 318.628 61.0049 318.367 60.8356 318.031C60.669 317.693 60.5856 317.298 60.5856 316.848C60.5856 316.4 60.6677 316.005 60.8317 315.664C60.9984 315.323 61.2315 315.057 61.5309 314.867C61.833 314.674 62.1872 314.578 62.5934 314.578C62.8408 314.578 63.0804 314.618 63.3122 314.699C63.544 314.78 63.7523 314.908 63.9372 315.082C64.1221 315.257 64.2679 315.483 64.3747 315.762C64.4841 316.04 64.5388 316.376 64.5388 316.77V317.074H61.0661V316.438H64.1013L63.7067 316.648C63.7067 316.38 63.6651 316.143 63.5817 315.938C63.4984 315.732 63.3734 315.572 63.2067 315.457C63.0427 315.34 62.8382 315.281 62.5934 315.281C62.3486 315.281 62.139 315.34 61.9645 315.457C61.7927 315.574 61.6611 315.729 61.57 315.922C61.4789 316.115 61.4333 316.326 61.4333 316.555V316.988C61.4333 317.288 61.4854 317.542 61.5895 317.75C61.6937 317.958 61.8382 318.117 62.0231 318.227C62.2106 318.336 62.4281 318.391 62.6755 318.391C62.8369 318.391 62.9828 318.367 63.113 318.32C63.2458 318.273 63.3604 318.203 63.4567 318.109C63.5531 318.016 63.626 317.9 63.6755 317.762L64.4802 317.914C64.4151 318.148 64.3005 318.354 64.1364 318.531C63.9723 318.708 63.7653 318.846 63.5153 318.945C63.2679 319.042 62.9854 319.09 62.6677 319.09ZM66.9648 319.086C66.7018 319.086 66.4857 319.042 66.3164 318.953C66.1497 318.862 66.0182 318.757 65.9219 318.637C65.8281 318.517 65.7552 318.411 65.7031 318.32H65.6328V319H64.8125V313.18H65.6562V315.344H65.7031C65.7552 315.253 65.8268 315.147 65.918 315.027C66.0117 314.908 66.1419 314.803 66.3086 314.715C66.4753 314.624 66.6927 314.578 66.9609 314.578C67.3125 314.578 67.625 314.667 67.8984 314.844C68.1745 315.021 68.3919 315.277 68.5508 315.613C68.7096 315.949 68.7891 316.354 68.7891 316.828C68.7891 317.297 68.7109 317.701 68.5547 318.039C68.3984 318.375 68.1823 318.634 67.9062 318.816C67.6328 318.996 67.319 319.086 66.9648 319.086ZM66.7812 318.363C67.0339 318.363 67.2448 318.296 67.4141 318.16C67.5833 318.025 67.7109 317.841 67.7969 317.609C67.8854 317.375 67.9297 317.112 67.9297 316.82C67.9297 316.531 67.8867 316.272 67.8008 316.043C67.7148 315.814 67.5872 315.633 67.418 315.5C67.2487 315.367 67.0365 315.301 66.7812 315.301C66.5339 315.301 66.3255 315.365 66.1562 315.492C65.987 315.617 65.8581 315.794 65.7695 316.023C65.6836 316.25 65.6406 316.516 65.6406 316.82C65.6406 317.125 65.6849 317.393 65.7734 317.625C65.862 317.857 65.9909 318.038 66.1602 318.168C66.332 318.298 66.5391 318.363 66.7812 318.363Z" fill="url(#paint3_linear_38_174)"/>
<path opacity="0.2" d="M103.265 313.18H104.335L106.187 317.703H106.253L108.109 313.18H109.195V319H108.335V314.789H108.281L106.558 318.992H105.863L104.16 314.785H104.105V319H103.265V313.18ZM111.015 319.094C110.739 319.094 110.489 319.043 110.265 318.941C110.041 318.837 109.864 318.686 109.734 318.488C109.604 318.29 109.539 318.049 109.539 317.766C109.539 317.518 109.586 317.316 109.679 317.16C109.776 317.001 109.905 316.875 110.066 316.781C110.228 316.688 110.407 316.617 110.605 316.57C110.803 316.523 111.006 316.487 111.215 316.461C111.478 316.432 111.69 316.408 111.851 316.387C112.013 316.366 112.13 316.333 112.203 316.289C112.278 316.242 112.316 316.168 112.316 316.066V316.047C112.316 315.799 112.246 315.608 112.105 315.473C111.967 315.337 111.761 315.27 111.488 315.27C111.204 315.27 110.979 315.332 110.812 315.457C110.648 315.579 110.535 315.719 110.472 315.875L109.672 315.691C109.768 315.426 109.907 315.212 110.09 315.051C110.274 314.887 110.485 314.767 110.722 314.691C110.962 314.616 111.212 314.578 111.472 314.578C111.647 314.578 111.832 314.599 112.027 314.641C112.222 314.68 112.406 314.754 112.578 314.863C112.752 314.97 112.894 315.124 113.004 315.324C113.113 315.525 113.168 315.784 113.168 316.102V319H112.336V318.402H112.304C112.252 318.509 112.17 318.616 112.058 318.723C111.949 318.829 111.808 318.918 111.636 318.988C111.465 319.059 111.258 319.094 111.015 319.094ZM111.199 318.414C111.436 318.414 111.638 318.368 111.804 318.277C111.971 318.184 112.099 318.061 112.187 317.91C112.276 317.759 112.32 317.599 112.32 317.43V316.863C112.289 316.892 112.23 316.919 112.144 316.945C112.058 316.971 111.961 316.993 111.851 317.012C111.742 317.03 111.635 317.047 111.531 317.062C111.427 317.076 111.34 317.086 111.269 317.094C111.105 317.117 110.955 317.154 110.82 317.203C110.685 317.25 110.575 317.32 110.492 317.414C110.411 317.505 110.371 317.626 110.371 317.777C110.371 317.988 110.449 318.147 110.605 318.254C110.761 318.361 110.959 318.414 111.199 318.414ZM113.664 319V314.633H114.48V315.332H114.527C114.608 315.098 114.749 314.913 114.949 314.777C115.152 314.639 115.382 314.57 115.637 314.57C115.689 314.57 115.75 314.573 115.82 314.578C115.893 314.581 115.952 314.585 115.996 314.59V315.402C115.962 315.392 115.901 315.382 115.812 315.371C115.727 315.361 115.639 315.355 115.551 315.355C115.35 315.355 115.171 315.398 115.012 315.484C114.855 315.568 114.732 315.684 114.641 315.832C114.552 315.978 114.508 316.147 114.508 316.34V319H113.664Z" fill="url(#paint4_linear_38_174)"/>
<path opacity="0.2" d="M150.011 319H149.078L151.171 313.18H152.187L154.277 319H153.347L151.699 314.238H151.652L150.011 319ZM150.167 316.723H153.187V317.457H150.167V316.723ZM154.39 320.633V314.633H155.211V315.344H155.281C155.333 315.253 155.405 315.147 155.496 315.027C155.59 314.908 155.72 314.803 155.886 314.715C156.053 314.624 156.271 314.578 156.539 314.578C156.89 314.578 157.203 314.667 157.476 314.844C157.752 315.021 157.97 315.277 158.129 315.613C158.287 315.949 158.367 316.354 158.367 316.828C158.367 317.297 158.289 317.701 158.133 318.039C157.976 318.375 157.76 318.634 157.484 318.816C157.211 318.996 156.897 319.086 156.543 319.086C156.28 319.086 156.063 319.042 155.894 318.953C155.728 318.862 155.596 318.757 155.5 318.637C155.406 318.517 155.333 318.411 155.281 318.32H155.234V320.633H154.39ZM156.359 318.363C156.612 318.363 156.823 318.296 156.992 318.16C157.161 318.025 157.289 317.841 157.375 317.609C157.463 317.375 157.508 317.112 157.508 316.82C157.508 316.531 157.465 316.272 157.379 316.043C157.293 315.814 157.165 315.633 156.996 315.5C156.827 315.367 156.614 315.301 156.359 315.301C156.112 315.301 155.903 315.365 155.734 315.492C155.565 315.617 155.436 315.794 155.347 316.023C155.261 316.25 155.218 316.516 155.218 316.82C155.218 317.125 155.263 317.393 155.351 317.625C155.44 317.857 155.569 318.038 155.738 318.168C155.91 318.298 156.117 318.363 156.359 318.363ZM158.664 319V314.633H159.48V315.332H159.527C159.608 315.098 159.749 314.913 159.949 314.777C160.152 314.639 160.382 314.57 160.637 314.57C160.689 314.57 160.75 314.573 160.82 314.578C160.893 314.581 160.952 314.585 160.996 314.59V315.402C160.962 315.392 160.901 315.382 160.812 315.371C160.727 315.361 160.639 315.355 160.551 315.355C160.35 315.355 160.171 315.398 160.012 315.484C159.855 315.568 159.732 315.684 159.641 315.832C159.552 315.978 159.508 316.147 159.508 316.34V319H158.664Z" fill="url(#paint5_linear_38_174)"/>
<path opacity="0.2" d="M194.968 313.18H196.038L197.89 317.703H197.956L199.812 313.18H200.898V319H200.038V314.789H199.984L198.261 318.992H197.566L195.863 314.785H195.808V319H194.968V313.18ZM202.718 319.094C202.442 319.094 202.192 319.043 201.968 318.941C201.744 318.837 201.567 318.686 201.437 318.488C201.307 318.29 201.242 318.049 201.242 317.766C201.242 317.518 201.289 317.316 201.383 317.16C201.479 317.001 201.608 316.875 201.769 316.781C201.931 316.688 202.11 316.617 202.308 316.57C202.506 316.523 202.709 316.487 202.918 316.461C203.181 316.432 203.393 316.408 203.554 316.387C203.716 316.366 203.833 316.333 203.906 316.289C203.981 316.242 204.019 316.168 204.019 316.066V316.047C204.019 315.799 203.949 315.608 203.808 315.473C203.67 315.337 203.465 315.27 203.191 315.27C202.907 315.27 202.682 315.332 202.515 315.457C202.351 315.579 202.238 315.719 202.175 315.875L201.375 315.691C201.471 315.426 201.61 315.212 201.793 315.051C201.978 314.887 202.188 314.767 202.425 314.691C202.665 314.616 202.915 314.578 203.175 314.578C203.35 314.578 203.535 314.599 203.73 314.641C203.925 314.68 204.109 314.754 204.281 314.863C204.455 314.97 204.597 315.124 204.707 315.324C204.816 315.525 204.871 315.784 204.871 316.102V319H204.039V318.402H204.008C203.955 318.509 203.873 318.616 203.761 318.723C203.652 318.829 203.511 318.918 203.34 318.988C203.168 319.059 202.961 319.094 202.718 319.094ZM202.902 318.414C203.139 318.414 203.341 318.368 203.508 318.277C203.674 318.184 203.802 318.061 203.89 317.91C203.979 317.759 204.023 317.599 204.023 317.43V316.863C203.992 316.892 203.933 316.919 203.847 316.945C203.761 316.971 203.664 316.993 203.554 317.012C203.445 317.03 203.338 317.047 203.234 317.062C203.13 317.076 203.043 317.086 202.972 317.094C202.808 317.117 202.659 317.154 202.523 317.203C202.388 317.25 202.278 317.32 202.195 317.414C202.114 317.505 202.074 317.626 202.074 317.777C202.074 317.988 202.152 318.147 202.308 318.254C202.465 318.361 202.662 318.414 202.902 318.414ZM205.742 320.633C205.615 320.635 205.499 320.626 205.395 320.605C205.293 320.587 205.215 320.565 205.16 320.539L205.367 319.848L205.426 319.863C205.642 319.918 205.824 319.914 205.973 319.852C206.124 319.792 206.25 319.624 206.352 319.348L206.457 319.059L204.863 314.633H205.773L206.875 318.023H206.922L208.027 314.633H208.938L207.141 319.578C207.057 319.807 206.952 320 206.824 320.156C206.697 320.315 206.543 320.434 206.363 320.512C206.186 320.592 205.979 320.633 205.742 320.633Z" fill="url(#paint6_linear_38_174)"/>
<path opacity="0.2" d="M244.554 319.078C244.223 319.078 243.926 319.02 243.663 318.902C243.4 318.783 243.192 318.608 243.038 318.379C242.885 318.15 242.808 317.871 242.808 317.543V317.43H243.679V317.543C243.679 317.702 243.716 317.841 243.788 317.961C243.864 318.081 243.967 318.173 244.097 318.238C244.23 318.301 244.382 318.332 244.554 318.332C244.739 318.332 244.897 318.293 245.027 318.215C245.157 318.137 245.256 318.022 245.324 317.871C245.391 317.717 245.425 317.53 245.425 317.309V313.18H246.296V317.309C246.296 317.681 246.225 318 246.081 318.266C245.941 318.529 245.74 318.73 245.48 318.871C245.219 319.009 244.911 319.078 244.554 319.078ZM249.617 317.195V314.633H250.461V319H249.633V318.242H249.586C249.481 318.474 249.32 318.668 249.101 318.824C248.883 318.98 248.609 319.057 248.281 319.055C248 319.055 247.751 318.993 247.535 318.871C247.321 318.749 247.153 318.565 247.031 318.32C246.911 318.076 246.851 317.772 246.851 317.41V314.633H247.695V317.312C247.695 317.607 247.778 317.842 247.945 318.02C248.112 318.197 248.327 318.284 248.59 318.281C248.748 318.281 248.906 318.242 249.062 318.164C249.221 318.086 249.353 317.966 249.457 317.805C249.563 317.643 249.617 317.44 249.617 317.195ZM251.797 316.41V319H250.953V314.633H251.773V315.352H251.832C251.931 315.115 252.086 314.927 252.297 314.789C252.508 314.648 252.779 314.578 253.109 314.578C253.406 314.578 253.665 314.641 253.887 314.766C254.111 314.888 254.284 315.072 254.406 315.316C254.531 315.561 254.594 315.865 254.594 316.227V319H253.75V316.328C253.75 316.013 253.667 315.766 253.5 315.586C253.333 315.404 253.107 315.312 252.82 315.312C252.625 315.312 252.449 315.357 252.293 315.445C252.139 315.531 252.018 315.655 251.93 315.816C251.841 315.978 251.797 316.176 251.797 316.41Z" fill="url(#paint7_linear_38_174)"/>
<path opacity="0.2" d="M290.351 319.078C290.02 319.078 289.723 319.02 289.46 318.902C289.197 318.783 288.989 318.608 288.835 318.379C288.682 318.15 288.605 317.871 288.605 317.543V317.43H289.476V317.543C289.476 317.702 289.512 317.841 289.585 317.961C289.661 318.081 289.764 318.173 289.894 318.238C290.027 318.301 290.179 318.332 290.351 318.332C290.536 318.332 290.693 318.293 290.824 318.215C290.954 318.137 291.053 318.022 291.12 317.871C291.188 317.717 291.222 317.53 291.222 317.309V313.18H292.093V317.309C292.093 317.681 292.022 318 291.878 318.266C291.738 318.529 291.537 318.73 291.277 318.871C291.016 319.009 290.708 319.078 290.351 319.078ZM295.414 317.195V314.633H296.258V319H295.429V318.242H295.383C295.278 318.474 295.117 318.668 294.898 318.824C294.679 318.98 294.406 319.057 294.078 319.055C293.797 319.055 293.548 318.993 293.332 318.871C293.118 318.749 292.95 318.565 292.828 318.32C292.708 318.076 292.648 317.772 292.648 317.41V314.633H293.492V317.312C293.492 317.607 293.575 317.842 293.742 318.02C293.909 318.197 294.123 318.284 294.386 318.281C294.545 318.281 294.703 318.242 294.859 318.164C295.018 318.086 295.149 317.966 295.254 317.805C295.36 317.643 295.414 317.44 295.414 317.195ZM297.594 313.18V319H296.75V313.18H297.594Z" fill="url(#paint8_linear_38_174)"/>
<path opacity="0.2" d="M332.324 319H331.39L333.484 313.18H334.499L336.589 319H335.66L334.011 314.238H333.964L332.324 319ZM332.48 316.723H335.499V317.457H332.48V316.723ZM339.468 317.195V314.633H340.312V319H339.484V318.242H339.437C339.333 318.474 339.172 318.668 338.953 318.824C338.734 318.98 338.461 319.057 338.133 319.055C337.851 319.055 337.603 318.993 337.386 318.871C337.173 318.749 337.005 318.565 336.883 318.32C336.763 318.076 336.703 317.772 336.703 317.41V314.633H337.547V317.312C337.547 317.607 337.63 317.842 337.797 318.02C337.963 318.197 338.178 318.284 338.441 318.281C338.6 318.281 338.758 318.242 338.914 318.164C339.073 318.086 339.204 317.966 339.308 317.805C339.415 317.643 339.468 317.44 339.468 317.195ZM342.625 320.727C342.104 320.727 341.694 320.629 341.395 320.434C341.095 320.238 340.888 320.007 340.773 319.738L341.5 319.438C341.552 319.521 341.621 319.609 341.707 319.703C341.796 319.797 341.914 319.876 342.062 319.941C342.211 320.007 342.402 320.039 342.637 320.039C342.957 320.039 343.223 319.961 343.434 319.805C343.645 319.651 343.75 319.404 343.75 319.062V318.207H343.691C343.645 318.298 343.573 318.401 343.477 318.516C343.38 318.628 343.249 318.725 343.082 318.809C342.915 318.892 342.698 318.934 342.43 318.934C342.086 318.934 341.776 318.853 341.5 318.691C341.227 318.527 341.008 318.288 340.844 317.973C340.682 317.655 340.602 317.264 340.602 316.801C340.602 316.337 340.681 315.94 340.84 315.609C341.001 315.276 341.22 315.021 341.496 314.844C341.772 314.667 342.086 314.578 342.438 314.578C342.708 314.578 342.927 314.624 343.094 314.715C343.263 314.803 343.395 314.908 343.488 315.027C343.582 315.147 343.655 315.253 343.707 315.344H343.77V314.633H344.594V319.098C344.594 319.473 344.507 319.78 344.332 320.02C344.16 320.259 343.926 320.436 343.629 320.551C343.332 320.668 342.997 320.727 342.625 320.727ZM342.617 318.227C342.984 318.227 343.266 318.1 343.461 317.848C343.659 317.592 343.758 317.24 343.758 316.789C343.758 316.495 343.715 316.237 343.629 316.016C343.543 315.792 343.415 315.617 343.246 315.492C343.077 315.365 342.867 315.301 342.617 315.301C342.362 315.301 342.148 315.367 341.977 315.5C341.807 315.63 341.68 315.809 341.594 316.035C341.508 316.259 341.465 316.51 341.465 316.789C341.465 317.073 341.508 317.324 341.594 317.543C341.68 317.759 341.809 317.927 341.98 318.047C342.155 318.167 342.367 318.227 342.617 318.227Z" fill="url(#paint9_linear_38_174)"/>
<path opacity="0.2" d="M381.308 319.094C380.873 319.094 380.495 319.026 380.175 318.891C379.857 318.753 379.609 318.556 379.429 318.301C379.249 318.046 379.149 317.742 379.128 317.391H380.011C380.029 317.602 380.097 317.777 380.214 317.918C380.334 318.056 380.489 318.159 380.679 318.227C380.869 318.294 381.078 318.328 381.304 318.328C381.551 318.328 381.773 318.289 381.968 318.211C382.163 318.133 382.316 318.023 382.425 317.883C382.537 317.74 382.593 317.573 382.593 317.383C382.593 317.211 382.544 317.07 382.445 316.961C382.348 316.852 382.217 316.762 382.05 316.691C381.883 316.618 381.696 316.555 381.488 316.5L380.804 316.312C380.335 316.188 379.966 316.001 379.695 315.754C379.424 315.504 379.288 315.177 379.288 314.773C379.288 314.438 379.378 314.145 379.558 313.895C379.74 313.645 379.986 313.451 380.296 313.312C380.609 313.172 380.959 313.102 381.347 313.102C381.743 313.102 382.091 313.172 382.39 313.312C382.692 313.451 382.93 313.641 383.105 313.883C383.282 314.122 383.374 314.397 383.382 314.707H382.531C382.499 314.439 382.374 314.23 382.156 314.082C381.939 313.934 381.663 313.859 381.328 313.859C381.093 313.859 380.887 313.897 380.71 313.973C380.536 314.046 380.4 314.147 380.304 314.277C380.21 314.408 380.163 314.557 380.163 314.727C380.163 314.909 380.219 315.057 380.331 315.172C380.446 315.286 380.584 315.378 380.745 315.445C380.91 315.51 381.067 315.564 381.218 315.605L381.785 315.758C381.969 315.805 382.16 315.867 382.355 315.945C382.55 316.023 382.731 316.126 382.898 316.254C383.067 316.379 383.203 316.535 383.304 316.723C383.408 316.908 383.46 317.132 383.46 317.395C383.46 317.72 383.376 318.012 383.206 318.27C383.037 318.525 382.792 318.727 382.472 318.875C382.152 319.021 381.764 319.094 381.308 319.094ZM385.668 319.09C385.241 319.09 384.871 318.997 384.558 318.812C384.246 318.628 384.005 318.367 383.836 318.031C383.669 317.693 383.586 317.298 383.586 316.848C383.586 316.4 383.668 316.005 383.832 315.664C383.998 315.323 384.231 315.057 384.531 314.867C384.833 314.674 385.187 314.578 385.593 314.578C385.841 314.578 386.08 314.618 386.312 314.699C386.544 314.78 386.752 314.908 386.937 315.082C387.122 315.257 387.268 315.483 387.375 315.762C387.484 316.04 387.539 316.376 387.539 316.77V317.074H384.066V316.438H387.101L386.707 316.648C386.707 316.38 386.665 316.143 386.582 315.938C386.498 315.732 386.373 315.572 386.207 315.457C386.043 315.34 385.838 315.281 385.593 315.281C385.349 315.281 385.139 315.34 384.965 315.457C384.793 315.574 384.661 315.729 384.57 315.922C384.479 316.115 384.433 316.326 384.433 316.555V316.988C384.433 317.288 384.485 317.542 384.59 317.75C384.694 317.958 384.838 318.117 385.023 318.227C385.211 318.336 385.428 318.391 385.675 318.391C385.837 318.391 385.983 318.367 386.113 318.32C386.246 318.273 386.36 318.203 386.457 318.109C386.553 318.016 386.626 317.9 386.675 317.762L387.48 317.914C387.415 318.148 387.3 318.354 387.136 318.531C386.972 318.708 386.765 318.846 386.515 318.945C386.268 319.042 385.985 319.09 385.668 319.09ZM387.812 320.633V314.633H388.633V315.344H388.703C388.755 315.253 388.827 315.147 388.918 315.027C389.012 314.908 389.142 314.803 389.309 314.715C389.475 314.624 389.693 314.578 389.961 314.578C390.312 314.578 390.625 314.667 390.898 314.844C391.174 315.021 391.392 315.277 391.551 315.613C391.71 315.949 391.789 316.354 391.789 316.828C391.789 317.297 391.711 317.701 391.555 318.039C391.398 318.375 391.182 318.634 390.906 318.816C390.633 318.996 390.319 319.086 389.965 319.086C389.702 319.086 389.486 319.042 389.316 318.953C389.15 318.862 389.018 318.757 388.922 318.637C388.828 318.517 388.755 318.411 388.703 318.32H388.656V320.633H387.812ZM389.781 318.363C390.034 318.363 390.245 318.296 390.414 318.16C390.583 318.025 390.711 317.841 390.797 317.609C390.885 317.375 390.93 317.112 390.93 316.82C390.93 316.531 390.887 316.272 390.801 316.043C390.715 315.814 390.587 315.633 390.418 315.5C390.249 315.367 390.036 315.301 389.781 315.301C389.534 315.301 389.326 315.365 389.156 315.492C388.987 315.617 388.858 315.794 388.77 316.023C388.684 316.25 388.641 316.516 388.641 316.82C388.641 317.125 388.685 317.393 388.773 317.625C388.862 317.857 388.991 318.038 389.16 318.168C389.332 318.298 389.539 318.363 389.781 318.363Z" fill="url(#paint10_linear_38_174)"/>
<path opacity="0.2" d="M428.867 319.078C428.367 319.078 427.919 318.958 427.523 318.719C427.127 318.479 426.814 318.137 426.585 317.691C426.356 317.243 426.242 316.711 426.242 316.094C426.242 315.471 426.356 314.938 426.585 314.492C426.814 314.044 427.127 313.701 427.523 313.461C427.919 313.221 428.367 313.102 428.867 313.102C429.372 313.102 429.821 313.221 430.214 313.461C430.607 313.701 430.917 314.044 431.144 314.492C431.373 314.938 431.488 315.471 431.488 316.094C431.488 316.714 431.373 317.246 431.144 317.691C430.917 318.137 430.607 318.479 430.214 318.719C429.821 318.958 429.372 319.078 428.867 319.078ZM428.867 318.277C429.203 318.277 429.502 318.194 429.765 318.027C430.028 317.861 430.235 317.615 430.386 317.289C430.54 316.964 430.617 316.565 430.617 316.094C430.617 315.62 430.54 315.22 430.386 314.895C430.235 314.566 430.028 314.319 429.765 314.152C429.502 313.986 429.203 313.902 428.867 313.902C428.533 313.902 428.234 313.986 427.968 314.152C427.705 314.319 427.497 314.566 427.343 314.895C427.189 315.22 427.113 315.62 427.113 316.094C427.113 316.565 427.189 316.964 427.343 317.289C427.497 317.615 427.705 317.861 427.968 318.027C428.234 318.194 428.533 318.277 428.867 318.277ZM433.691 319.09C433.272 319.09 432.91 318.993 432.605 318.801C432.3 318.608 432.066 318.342 431.902 318.004C431.738 317.665 431.656 317.277 431.656 316.84C431.656 316.395 431.739 316.003 431.906 315.664C432.075 315.323 432.311 315.057 432.613 314.867C432.918 314.674 433.274 314.578 433.683 314.578C434.017 314.578 434.312 314.639 434.57 314.762C434.83 314.882 435.04 315.052 435.199 315.273C435.36 315.495 435.455 315.753 435.484 316.047H434.656C434.627 315.909 434.571 315.783 434.488 315.668C434.407 315.553 434.3 315.462 434.168 315.395C434.035 315.327 433.877 315.293 433.695 315.293C433.458 315.293 433.251 315.355 433.074 315.48C432.899 315.603 432.763 315.779 432.664 316.008C432.565 316.237 432.515 316.508 432.515 316.82C432.515 317.135 432.563 317.41 432.66 317.645C432.756 317.879 432.893 318.06 433.07 318.188C433.25 318.312 433.458 318.375 433.695 318.375C433.94 318.375 434.148 318.307 434.32 318.172C434.494 318.036 434.606 317.852 434.656 317.617H435.484C435.455 317.901 435.364 318.154 435.211 318.375C435.057 318.596 434.851 318.771 434.593 318.898C434.336 319.026 434.035 319.09 433.691 319.09ZM437.797 314.633V315.316H435.414V314.633H437.797ZM436.051 313.594H436.898V317.719C436.898 317.919 436.94 318.066 437.023 318.16C437.107 318.251 437.241 318.297 437.426 318.297C437.47 318.297 437.517 318.294 437.566 318.289C437.618 318.284 437.671 318.276 437.723 318.266L437.883 318.969C437.797 318.997 437.703 319.02 437.602 319.035C437.5 319.051 437.398 319.059 437.297 319.059C436.919 319.059 436.617 318.953 436.391 318.742C436.164 318.529 436.051 318.245 436.051 317.891V313.594Z" fill="url(#paint11_linear_38_174)"/>
<path opacity="0.2" d="M476.636 313.18V319H475.816L472.867 314.734H472.808V319H471.929V313.18H472.742L475.703 317.453H475.757V313.18H476.636ZM479.027 319.09C478.618 319.09 478.26 318.996 477.953 318.809C477.648 318.621 477.411 318.358 477.242 318.02C477.075 317.681 476.992 317.288 476.992 316.84C476.992 316.387 477.075 315.991 477.242 315.652C477.411 315.311 477.648 315.047 477.953 314.859C478.26 314.672 478.618 314.578 479.027 314.578C479.438 314.578 479.797 314.672 480.101 314.859C480.406 315.047 480.643 315.311 480.812 315.652C480.981 315.991 481.066 316.387 481.066 316.84C481.066 317.288 480.981 317.681 480.812 318.02C480.643 318.358 480.406 318.621 480.101 318.809C479.797 318.996 479.438 319.09 479.027 319.09ZM479.027 318.375C479.295 318.375 479.517 318.305 479.691 318.164C479.866 318.023 479.994 317.837 480.078 317.605C480.164 317.371 480.207 317.116 480.207 316.84C480.207 316.559 480.164 316.301 480.078 316.066C479.994 315.832 479.866 315.645 479.691 315.504C479.517 315.363 479.295 315.293 479.027 315.293C478.761 315.293 478.541 315.363 478.367 315.504C478.195 315.645 478.066 315.832 477.98 316.066C477.894 316.301 477.851 316.559 477.851 316.84C477.851 317.116 477.894 317.371 477.98 317.605C478.066 317.837 478.195 318.023 478.367 318.164C478.541 318.305 478.761 318.375 479.027 318.375ZM484.938 314.633L483.359 319H482.445L480.863 314.633H481.773L482.883 318H482.93L484.031 314.633H484.938Z" fill="url(#paint12_linear_38_174)"/>
<path opacity="0.2" d="M520.988 319H519.55V318.23H520.937C521.38 318.23 521.748 318.148 522.042 317.984C522.337 317.818 522.557 317.574 522.703 317.254C522.848 316.931 522.921 316.54 522.921 316.082C522.921 315.626 522.848 315.24 522.703 314.922C522.559 314.604 522.344 314.363 522.058 314.199C521.772 314.033 521.416 313.949 520.992 313.949H519.519V313.18H521.046C521.617 313.18 522.106 313.296 522.515 313.527C522.924 313.759 523.238 314.092 523.456 314.527C523.675 314.96 523.785 315.478 523.785 316.082C523.785 316.689 523.674 317.21 523.453 317.645C523.234 318.079 522.916 318.414 522.499 318.648C522.083 318.883 521.579 319 520.988 319ZM519.98 313.18V319H519.101V313.18H519.98ZM526.035 319.09C525.608 319.09 525.238 318.997 524.925 318.812C524.613 318.628 524.372 318.367 524.203 318.031C524.036 317.693 523.953 317.298 523.953 316.848C523.953 316.4 524.035 316.005 524.199 315.664C524.366 315.323 524.599 315.057 524.898 314.867C525.2 314.674 525.554 314.578 525.961 314.578C526.208 314.578 526.448 314.618 526.679 314.699C526.911 314.78 527.119 314.908 527.304 315.082C527.489 315.257 527.635 315.483 527.742 315.762C527.851 316.04 527.906 316.376 527.906 316.77V317.074H524.433V316.438H527.468L527.074 316.648C527.074 316.38 527.032 316.143 526.949 315.938C526.866 315.732 526.741 315.572 526.574 315.457C526.41 315.34 526.205 315.281 525.961 315.281C525.716 315.281 525.506 315.34 525.332 315.457C525.16 315.574 525.028 315.729 524.937 315.922C524.846 316.115 524.8 316.326 524.8 316.555V316.988C524.8 317.288 524.853 317.542 524.957 317.75C525.061 317.958 525.205 318.117 525.39 318.227C525.578 318.336 525.795 318.391 526.043 318.391C526.204 318.391 526.35 318.367 526.48 318.32C526.613 318.273 526.728 318.203 526.824 318.109C526.92 318.016 526.993 317.9 527.043 317.762L527.847 317.914C527.782 318.148 527.668 318.354 527.504 318.531C527.34 318.708 527.133 318.846 526.883 318.945C526.635 319.042 526.353 319.09 526.035 319.09ZM530.012 319.09C529.592 319.09 529.23 318.993 528.926 318.801C528.621 318.608 528.387 318.342 528.223 318.004C528.059 317.665 527.977 317.277 527.977 316.84C527.977 316.395 528.06 316.003 528.227 315.664C528.396 315.323 528.632 315.057 528.934 314.867C529.238 314.674 529.595 314.578 530.004 314.578C530.337 314.578 530.633 314.639 530.891 314.762C531.151 314.882 531.361 315.052 531.52 315.273C531.681 315.495 531.776 315.753 531.805 316.047H530.977C530.948 315.909 530.892 315.783 530.809 315.668C530.728 315.553 530.621 315.462 530.488 315.395C530.355 315.327 530.198 315.293 530.016 315.293C529.779 315.293 529.572 315.355 529.395 315.48C529.22 315.603 529.083 315.779 528.984 316.008C528.885 316.237 528.836 316.508 528.836 316.82C528.836 317.135 528.884 317.41 528.98 317.645C529.077 317.879 529.214 318.06 529.391 318.188C529.57 318.312 529.779 318.375 530.016 318.375C530.26 318.375 530.469 318.307 530.641 318.172C530.815 318.036 530.927 317.852 530.977 317.617H531.805C531.776 317.901 531.685 318.154 531.531 318.375C531.378 318.596 531.172 318.771 530.914 318.898C530.656 319.026 530.355 319.09 530.012 319.09Z" fill="url(#paint13_linear_38_174)"/>
<defs>
<radialGradient id="paint0_radial_38_174" cx="0" cy="0" r="1" gradientUnits="userSpaceOnUse" gradientTransform="translate(257.581 69.0009) scale(268.919 135386)">
<stop stop-color="#2C2C2C"/>
<stop offset="1" stop-color="#2C2C2C" stop-opacity="0"/>
</radialGradient>
<radialGradient id="paint1_radial_38_174" cx="0" cy="0" r="1" gradientUnits="userSpaceOnUse" gradientTransform="translate(9.48952 307.995) rotate(-63.8401) scale(252.905 153142)">
<stop stop-color="#2C2C2C" stop-opacity="0.4"/>
<stop offset="1" stop-color="#2C2C2C" stop-opacity="0"/>
</radialGradient>
<linearGradient id="paint2_linear_38_174" x1="17.8" y1="320.61" x2="17.8011" y2="311.018" gradientUnits="userSpaceOnUse">
<stop stop-color="#2C2C2C"/>
<stop offset="1" stop-color="white"/>
</linearGradient>
<linearGradient id="paint3_linear_38_174" x1="63.8" y1="320.61" x2="63.8011" y2="311.018" gradientUnits="userSpaceOnUse">
<stop stop-color="#2C2C2C"/>
<stop offset="1" stop-color="white"/>
</linearGradient>
<linearGradient id="paint4_linear_38_174" x1="110.4" y1="320.61" x2="110.401" y2="311.018" gradientUnits="userSpaceOnUse">
<stop stop-color="#2C2C2C"/>
<stop offset="1" stop-color="white"/>
</linearGradient>
<linearGradient id="paint5_linear_38_174" x1="156.2" y1="320.61" x2="156.201" y2="311.018" gradientUnits="userSpaceOnUse">
<stop stop-color="#2C2C2C"/>
<stop offset="1" stop-color="white"/>
</linearGradient>
<linearGradient id="paint6_linear_38_174" x1="203" y1="320.61" x2="203.001" y2="311.018" gradientUnits="userSpaceOnUse">
<stop stop-color="#2C2C2C"/>
<stop offset="1" stop-color="white"/>
</linearGradient>
<linearGradient id="paint7_linear_38_174" x1="249.8" y1="320.61" x2="249.801" y2="311.018" gradientUnits="userSpaceOnUse">
<stop stop-color="#2C2C2C"/>
<stop offset="1" stop-color="white"/>
</linearGradient>
<linearGradient id="paint8_linear_38_174" x1="294" y1="320.61" x2="294.001" y2="311.018" gradientUnits="userSpaceOnUse">
<stop stop-color="#2C2C2C"/>
<stop offset="1" stop-color="white"/>
</linearGradient>
<linearGradient id="paint9_linear_38_174" x1="339.4" y1="320.61" x2="339.401" y2="311.018" gradientUnits="userSpaceOnUse">
<stop stop-color="#2C2C2C"/>
<stop offset="1" stop-color="white"/>
</linearGradient>
<linearGradient id="paint10_linear_38_174" x1="386.4" y1="320.61" x2="386.401" y2="311.018" gradientUnits="userSpaceOnUse">
<stop stop-color="#2C2C2C"/>
<stop offset="1" stop-color="white"/>
</linearGradient>
<linearGradient id="paint11_linear_38_174" x1="432.8" y1="320.61" x2="432.801" y2="311.018" gradientUnits="userSpaceOnUse">
<stop stop-color="#2C2C2C"/>
<stop offset="1" stop-color="white"/>
</linearGradient>
<linearGradient id="paint12_linear_38_174" x1="479.4" y1="320.61" x2="479.401" y2="311.018" gradientUnits="userSpaceOnUse">
<stop stop-color="#2C2C2C"/>
<stop offset="1" stop-color="white"/>
</linearGradient>
<linearGradient id="paint13_linear_38_174" x1="526.4" y1="320.61" x2="526.401" y2="311.018" gradientUnits="userSpaceOnUse">
<stop stop-color="#2C2C2C"/>
<stop offset="1" stop-color="white"/>
</linearGradient>
</defs>
</svg>
