<svg width="48" height="48" viewBox="0 0 48 48" fill="none" xmlns="http://www.w3.org/2000/svg">
<path fill-rule="evenodd" clip-rule="evenodd" d="M29.4029 13.0103H16.6909L10.3555 23.9999H23.0469L29.4029 13.0103Z" fill="#F16C12"/>
<path fill-rule="evenodd" clip-rule="evenodd" d="M16.6914 13.0102H22.8833H29.4033C29.4033 8.31496 26.8405 4.19383 23.0474 2L16.6914 13.0102Z" fill="#EE521C"/>
<path fill-rule="evenodd" clip-rule="evenodd" d="M23.0474 24H10.356C10.3355 24 10.3355 24 10.3355 24L4 35.0102H16.6914L23.0474 24ZM29.4034 35.0102H42.0948C42.0948 30.315 39.5524 26.1938 35.7593 24H35.7388L29.4034 35.0102Z" fill="#F58709"/>
<path fill-rule="evenodd" clip-rule="evenodd" d="M16.6914 35.0103H4L10.356 45.9999H23.0474C19.2543 43.8061 16.6914 39.7055 16.6914 35.0103ZM42.0948 35.0103H29.4034L23.0474 45.9999H35.7388L42.0948 35.0103Z" fill="#F9A100"/>
</svg>
