<svg width="33" height="33" viewBox="0 0 33 33" fill="none" xmlns="http://www.w3.org/2000/svg">
<g opacity="0.3">
<path d="M17.7284 8.2002C17.7284 7.52179 17.1784 6.97183 16.5 6.97183C15.8216 6.97183 15.2716 7.52179 15.2716 8.2002V10.2939C13.3054 10.3639 11.9517 12.1315 11.9517 14.0101C11.9517 15.9214 13.3608 17.7267 15.3928 17.7267H17.6072C18.0186 17.7267 18.5916 18.1507 18.5916 18.9883C18.5916 19.8236 18.0191 20.2482 17.6072 20.2482H15.3928C15.3838 20.2482 15.3749 20.2483 15.3659 20.2485C15.3591 20.2486 15.3522 20.2488 15.3454 20.2491C15.0621 20.26 14.711 20.0948 14.494 19.6713C14.1846 19.0676 13.4443 18.829 12.8406 19.1384C12.2369 19.4478 11.9983 20.1881 12.3077 20.7918C12.8823 21.913 13.9922 22.689 15.2716 22.7062V24.7998C15.2716 25.4782 15.8216 26.0282 16.5 26.0282C17.1784 26.0282 17.7284 25.4782 17.7284 24.7998V22.7028C19.6946 22.6327 21.0483 20.8635 21.0483 18.9883C21.0483 17.0736 19.6392 15.27 17.6072 15.27H15.3928C14.9814 15.27 14.4085 14.8443 14.4085 14.0101C14.4085 13.1714 14.9809 12.7485 15.3928 12.7485H17.6072C17.623 12.7485 17.6388 12.7482 17.6546 12.7476C17.9379 12.7366 18.289 12.9019 18.506 13.3253C18.8154 13.9291 19.5557 14.1677 20.1594 13.8583C20.7631 13.5488 21.0017 12.8086 20.6923 12.2048C20.1177 11.0837 19.0078 10.3077 17.7284 10.2905V8.2002Z" fill="#2C2C2C"/>
<path fill-rule="evenodd" clip-rule="evenodd" d="M16.5 0C14.3332 0 12.1876 0.426786 10.1857 1.25599C8.18385 2.08519 6.36491 3.30057 4.83274 4.83274C3.30057 6.36491 2.08519 8.18385 1.25599 10.1857C0.426785 12.1876 0 14.3332 0 16.5C0 18.6668 0.426785 20.8124 1.25599 22.8143C2.08519 24.8162 3.30057 26.6351 4.83274 28.1673C6.3649 29.6994 8.18385 30.9148 10.1857 31.744C12.1876 32.5732 14.3332 33 16.5 33C18.6668 33 20.8124 32.5732 22.8143 31.744C24.8162 30.9148 26.6351 29.6994 28.1673 28.1673C29.6994 26.6351 30.9148 24.8162 31.744 22.8143C32.5732 20.8124 33 18.6668 33 16.5C33 14.3332 32.5732 12.1876 31.744 10.1857C30.9148 8.18385 29.6994 6.3649 28.1673 4.83274C26.6351 3.30057 24.8162 2.08519 22.8143 1.25599C20.8124 0.426786 18.6668 0 16.5 0ZM11.1259 3.52572C12.8297 2.81998 14.6558 2.45674 16.5 2.45674C18.3442 2.45674 20.1703 2.81998 21.8741 3.52572C23.5779 4.23146 25.126 5.26588 26.4301 6.56992C27.7341 7.87395 28.7685 9.42207 29.4743 11.1259C30.18 12.8297 30.5433 14.6558 30.5433 16.5C30.5433 18.3442 30.18 20.1703 29.4743 21.8741C28.9257 23.1985 28.1786 24.4287 27.2606 25.5234C25.5234 27.2606 27.1238 25.4635 25.5234 27.2606C24.4287 28.1786 23.1985 28.9257 21.8741 29.4743C20.1703 30.18 18.3442 30.5433 16.5 30.5433C14.6558 30.5433 12.8297 30.18 11.1259 29.4743C9.42207 28.7685 7.87395 27.7341 6.56992 26.4301C5.26588 25.126 4.23146 23.5779 3.52572 21.8741C2.81998 20.1703 2.45674 18.3442 2.45674 16.5C2.45674 14.6558 2.81998 12.8297 3.52572 11.1259C4.07428 9.80154 4.82141 8.57127 5.73939 7.47656C5.73939 7.47656 5.73939 7.47656 7.47657 5.73938C8.57127 4.82141 9.80154 4.07428 11.1259 3.52572Z" fill="#2C2C2C"/>
</g>
</svg>
