<svg width="76" height="46" viewBox="0 0 76 46" fill="none" xmlns="http://www.w3.org/2000/svg">
<g clip-path="url(#clip0_122_8984)">
<path d="M21.6004 16.7824C21.6004 17.7176 21.7004 18.4758 21.8754 19.0319C22.0754 19.5879 22.3254 20.1945 22.6754 20.8516C22.8004 21.0538 22.8504 21.256 22.8504 21.433C22.8504 21.6857 22.7004 21.9385 22.3754 22.1912L20.8004 23.2527C20.5754 23.4044 20.3504 23.4802 20.1504 23.4802C19.9004 23.4802 19.6504 23.3538 19.4004 23.1264C19.0504 22.7472 18.7504 22.3429 18.5004 21.9385C18.2504 21.5088 18.0004 21.0286 17.7254 20.4472C15.7754 22.7725 13.3254 23.9352 10.3754 23.9352C8.27539 23.9352 6.60039 23.3286 5.37539 22.1154C4.15039 20.9022 3.52539 19.2846 3.52539 17.2626C3.52539 15.1143 4.27539 13.3703 5.80039 12.056C7.32539 10.7418 9.35039 10.0846 11.9254 10.0846C12.7754 10.0846 13.6504 10.1604 14.5754 10.2868C15.5004 10.4132 16.4504 10.6154 17.4504 10.8429V8.99779C17.4504 7.07692 17.0504 5.73736 16.2754 4.95384C15.4754 4.17032 14.1254 3.7912 12.2004 3.7912C11.3254 3.7912 10.4254 3.8923 9.50039 4.11977C8.57539 4.34725 7.67539 4.62527 6.80039 4.97911C6.40039 5.15604 6.10039 5.25714 5.92539 5.30769C5.75039 5.35823 5.62539 5.38351 5.52539 5.38351C5.17539 5.38351 5.00039 5.13076 5.00039 4.59999V3.36153C5.00039 2.95714 5.05039 2.65384 5.17539 2.47692C5.30039 2.29999 5.52539 2.12307 5.87539 1.94615C6.75039 1.4912 7.80039 1.11208 9.02539 0.808784C10.2504 0.480213 11.5504 0.328565 12.9254 0.328565C15.9004 0.328565 18.0754 1.01098 19.4754 2.37582C20.8504 3.74065 21.5504 5.81318 21.5504 8.5934V16.7824H21.6004ZM11.4504 20.6242C12.2754 20.6242 13.1254 20.4725 14.0254 20.1692C14.9254 19.8659 15.7254 19.3099 16.4004 18.5516C16.8004 18.0714 17.1004 17.5407 17.2504 16.9341C17.4004 16.3275 17.5004 15.5945 17.5004 14.7352V13.6736C16.7754 13.4967 16.0004 13.345 15.2004 13.2439C14.4004 13.1429 13.6254 13.0923 12.8504 13.0923C11.1754 13.0923 9.95039 13.4209 9.12539 14.1033C8.30039 14.7857 7.90039 15.7461 7.90039 17.0099C7.90039 18.1978 8.20039 19.0824 8.82539 19.689C9.42539 20.3209 10.3004 20.6242 11.4504 20.6242ZM31.5254 23.3538C31.0754 23.3538 30.7754 23.278 30.5754 23.1011C30.3754 22.9494 30.2004 22.5956 30.0504 22.1154L24.1754 2.57801C24.0254 2.07252 23.9504 1.74395 23.9504 1.56703C23.9504 1.16263 24.1504 0.935158 24.5504 0.935158H27.0004C27.4754 0.935158 27.8004 1.01098 27.9754 1.18791C28.1754 1.33955 28.3254 1.6934 28.4754 2.17362L32.6754 18.9055L36.5754 2.17362C36.7004 1.66813 36.8504 1.33955 37.0504 1.18791C37.2504 1.03626 37.6004 0.935158 38.0504 0.935158H40.0504C40.5254 0.935158 40.8504 1.01098 41.0504 1.18791C41.2504 1.33955 41.4254 1.6934 41.5254 2.17362L45.4754 19.1077L49.8004 2.17362C49.9504 1.66813 50.1254 1.33955 50.3004 1.18791C50.5004 1.03626 50.8254 0.935158 51.2754 0.935158H53.6004C54.0004 0.935158 54.2254 1.13736 54.2254 1.56703C54.2254 1.6934 54.2004 1.81977 54.1754 1.97142C54.1504 2.12307 54.1004 2.32527 54.0004 2.60329L47.9754 22.1407C47.8254 22.6461 47.6504 22.9747 47.4504 23.1264C47.2504 23.278 46.9254 23.3791 46.5004 23.3791H44.3504C43.8754 23.3791 43.5504 23.3033 43.3504 23.1264C43.1504 22.9494 42.9754 22.6209 42.8754 22.1154L39.0004 5.81318L35.1504 22.0901C35.0254 22.5956 34.8754 22.9242 34.6754 23.1011C34.4754 23.278 34.1254 23.3538 33.6754 23.3538H31.5254ZM63.6504 24.0363C62.3504 24.0363 61.0504 23.8846 59.8004 23.5813C58.5504 23.278 57.5754 22.9494 56.9254 22.5703C56.5254 22.3429 56.2504 22.0901 56.1504 21.8626C56.0504 21.6352 56.0004 21.3824 56.0004 21.1549V19.8659C56.0004 19.3352 56.2004 19.0824 56.5754 19.0824C56.7254 19.0824 56.8754 19.1077 57.0254 19.1582C57.1754 19.2088 57.4004 19.3099 57.6504 19.411C58.5004 19.7901 59.4254 20.0934 60.4004 20.2956C61.4004 20.4978 62.3754 20.5989 63.3754 20.5989C64.9504 20.5989 66.1754 20.3209 67.0254 19.7648C67.8754 19.2088 68.3254 18.4 68.3254 17.3637C68.3254 16.656 68.1004 16.0747 67.6504 15.5945C67.2004 15.1143 66.3504 14.6846 65.1254 14.2802L61.5004 13.1428C59.6754 12.5615 58.3254 11.7022 57.5004 10.5648C56.6754 9.45274 56.2504 8.21428 56.2504 6.89999C56.2504 5.83845 56.4754 4.90329 56.9254 4.0945C57.3754 3.28571 57.9754 2.57802 58.7254 2.02197C59.4754 1.44065 60.3254 1.01098 61.3254 0.707685C62.3254 0.404389 63.3754 0.278015 64.4754 0.278015C65.0254 0.278015 65.6004 0.30329 66.1504 0.379114C66.7254 0.454938 67.2504 0.556037 67.7754 0.657136C68.2754 0.78351 68.7504 0.909883 69.2004 1.06153C69.6504 1.21318 70.0004 1.36483 70.2504 1.51648C70.6004 1.71867 70.8504 1.92087 71.0004 2.14834C71.1504 2.35054 71.2254 2.62856 71.2254 2.98241V4.17032C71.2254 4.70109 71.0254 4.97911 70.6504 4.97911C70.4504 4.97911 70.1254 4.87801 69.7004 4.67582C68.2754 4.01867 66.6754 3.6901 64.9004 3.6901C63.4754 3.6901 62.3504 3.91758 61.5754 4.39779C60.8004 4.87801 60.4004 5.61098 60.4004 6.64725C60.4004 7.35494 60.6504 7.96153 61.1504 8.44175C61.6504 8.92197 62.5754 9.40219 63.9004 9.83186L67.4504 10.9692C69.2504 11.5505 70.5504 12.3593 71.3254 13.3956C72.1004 14.4319 72.4754 15.6198 72.4754 16.9341C72.4754 18.0209 72.2504 19.0066 71.8254 19.8659C71.3754 20.7253 70.7754 21.4835 70.0004 22.0901C69.2254 22.722 68.3004 23.1769 67.2254 23.5055C66.1004 23.8593 64.9254 24.0363 63.6504 24.0363Z" fill="#252F3E"/>
<path fill-rule="evenodd" clip-rule="evenodd" d="M68.376 36.3198C60.151 42.4615 48.201 45.722 37.926 45.722C23.526 45.722 10.551 40.3384 0.750973 31.3912C-0.024027 30.6835 0.675973 29.7231 1.60097 30.2791C12.201 36.4967 25.276 40.2626 38.801 40.2626C47.926 40.2626 57.951 38.3417 67.176 34.3989C68.551 33.767 69.726 35.3088 68.376 36.3198Z" fill="#FF9900"/>
<path fill-rule="evenodd" clip-rule="evenodd" d="M71.8014 32.3769C70.7514 31.0121 64.8514 31.7198 62.1764 32.0483C61.3764 32.1494 61.2514 31.4417 61.9764 30.911C66.6764 27.5747 74.4014 28.5351 75.3014 29.6472C76.2014 30.7846 75.0514 38.5945 70.6514 42.3351C69.9764 42.9165 69.3264 42.6132 69.6264 41.8549C70.6264 39.3527 72.8514 33.7165 71.8014 32.3769Z" fill="#FF9900"/>
</g>
<defs>
<clipPath id="clip0_122_8984">
<rect width="76" height="46" fill="white"/>
</clipPath>
</defs>
</svg>
