<svg width="108" height="23" viewBox="0 0 108 23" fill="none" xmlns="http://www.w3.org/2000/svg">
<path d="M0 12.8405V9.1333L13.7944 4.37423V7.65812L3.56173 10.9321L13.7944 14.2387V17.5996L0 12.8405Z" fill="#2C2C2C"/>
<path d="M23.6067 0L18.9088 23H15.5252L20.2362 0H23.6067Z" fill="#3366CB"/>
<path d="M39.1189 9.1333V12.8405L25.3245 17.5996V14.3157L35.5952 10.9321L25.3245 7.73508V4.37423L39.1189 9.1333Z" fill="#2C2C2C"/>
<path d="M47.4607 18.5103V0H51.2606V7.13218H51.3387C51.7031 6.277 52.2453 5.62279 52.9654 5.16955C53.6942 4.70775 54.5791 4.47685 55.6202 4.47685C56.6353 4.47685 57.5072 4.6992 58.2359 5.14389C58.9647 5.58003 59.5243 6.20004 59.9147 7.0039C60.3138 7.80777 60.5133 8.76557 60.5133 9.8773V18.5103H56.7133V10.647C56.7133 9.68916 56.4791 8.94088 56.0106 8.40212C55.5508 7.85481 54.8871 7.58115 54.0195 7.58115C53.4643 7.58115 52.9784 7.7137 52.562 7.97881C52.1542 8.23536 51.8332 8.59453 51.599 9.05633C51.3734 9.50957 51.2606 10.0355 51.2606 10.6341V18.5103H47.4607Z" fill="#2C2C2C"/>
<path d="M68.5037 18.7925C66.9594 18.7925 65.8142 18.4718 65.0681 17.8305C64.322 17.1891 63.9489 16.1329 63.9489 14.662V7.58115H62.0099V4.75906H63.9489V1.39822H67.7879V4.75906H70.3386V7.58115H67.7879V14.2515C67.7879 14.8929 67.9311 15.3419 68.2174 15.5984C68.5124 15.8464 68.9461 15.9704 69.5187 15.9704C69.6923 15.9704 69.8441 15.9662 69.9742 15.9576C70.1044 15.9405 70.2258 15.9234 70.3386 15.9063V18.6514C70.1304 18.6856 69.8701 18.7156 69.5578 18.7412C69.2541 18.7754 68.9028 18.7925 68.5037 18.7925Z" fill="#2C2C2C"/>
<path d="M72.4338 18.5103V4.75906H76.2338V7.06804H76.3118C76.5981 6.28128 77.084 5.65272 77.7694 5.18238C78.4634 4.71203 79.279 4.47685 80.2159 4.47685C80.8666 4.47685 81.4522 4.58803 81.9728 4.81037C82.4933 5.03272 82.9314 5.35341 83.2871 5.77245C83.6515 6.19149 83.9075 6.70459 84.055 7.31177H84.133C84.3412 6.73025 84.6536 6.22997 85.07 5.81093C85.4951 5.38334 85.994 5.0541 86.5666 4.8232C87.1479 4.5923 87.7812 4.47685 88.4666 4.47685C89.3775 4.47685 90.1757 4.66927 90.8611 5.0541C91.5465 5.43893 92.08 5.97769 92.4617 6.67039C92.8435 7.36308 93.0343 8.1755 93.0343 9.10764V18.5103H89.2344V10.0441C89.2344 9.24875 89.0392 8.64157 88.6488 8.22253C88.2583 7.79494 87.6944 7.58115 86.957 7.58115C86.4798 7.58115 86.059 7.68805 85.6947 7.90184C85.339 8.11564 85.0613 8.41495 84.8618 8.79978C84.6623 9.18461 84.5625 9.63358 84.5625 10.1467V18.5103H80.9057V9.92861C80.9057 9.18461 80.7061 8.60736 80.307 8.19688C79.9079 7.78639 79.357 7.58115 78.6543 7.58115C78.1771 7.58115 77.7564 7.69232 77.392 7.91467C77.0276 8.13701 76.7413 8.44488 76.5331 8.83826C76.3335 9.23164 76.2338 9.68916 76.2338 10.2108V18.5103H72.4338Z" fill="#2C2C2C"/>
<path d="M94.4919 18.5103L98.8644 11.6603L94.5179 4.75906H98.7994L101.311 9.40268H101.389L103.862 4.75906H108L103.64 11.5577L107.961 18.5103H103.836L101.181 13.7384H101.103L98.4871 18.5103H94.4919Z" fill="#3366CB"/>
</svg>
