<svg width="137" height="54" viewBox="0 0 137 54" fill="none" xmlns="http://www.w3.org/2000/svg">
<path d="M55.3564 16.3926L58.9198 15.5363V32.663C58.9198 34.5591 59.4727 35.6601 60.5786 36.0271C60.0256 37.067 59.1041 37.6175 57.7524 37.6175C56.1551 37.6175 55.2949 36.5165 55.2949 34.2533V16.3926H55.3564ZM64.3263 37.3116V24.956H62.3603V22.02H67.9511V37.3116H64.3263ZM66.1694 16.148C66.7223 16.148 67.2139 16.3315 67.6439 16.7596C68.074 17.1878 68.2583 17.6771 68.2583 18.2276C68.2583 18.7781 68.074 19.2675 67.6439 19.6956C67.2139 20.1238 66.7223 20.3073 66.1694 20.3073C65.6165 20.3073 65.125 20.1238 64.6949 19.6956C64.2648 19.2675 64.0805 18.7781 64.0805 18.2276C64.0805 17.6771 64.2648 17.1878 64.6949 16.7596C65.125 16.3315 65.6165 16.148 66.1694 16.148ZM81.9589 37.3116V28.5036C81.9589 27.2191 81.7132 26.2405 81.2217 25.69C80.7302 25.0783 79.9315 24.7725 78.7641 24.7725C78.2112 24.7725 77.6583 24.8948 77.1053 25.2006C76.4909 25.5065 76.0609 25.8735 75.6923 26.3016V37.3116H72.1289V22.0811H74.7093L75.3851 23.488C76.3681 22.3258 77.7811 21.7753 79.6857 21.7753C81.5288 21.7753 82.9419 22.3258 83.9864 23.4268C85.0308 24.5278 85.5837 26.057 85.5837 27.9531V37.3116H81.9589ZM88.3484 29.6658C88.3484 27.3415 89.0243 25.4453 90.3759 23.9773C91.7275 22.5093 93.5092 21.7753 95.721 21.7753C98.0556 21.7753 99.8373 22.4481 101.127 23.855C102.418 25.2618 103.032 27.158 103.032 29.6046C103.032 32.0513 102.356 33.9475 101.066 35.4155C99.7759 36.8223 97.9942 37.5563 95.6595 37.5563C93.3249 37.5563 91.5432 36.8223 90.253 35.4155C89.0243 33.9475 88.3484 32.0513 88.3484 29.6658ZM92.0961 29.6658C92.0961 33.03 93.3249 34.6815 95.721 34.6815C96.8269 34.6815 97.687 34.2533 98.3628 33.397C99.0386 32.5406 99.3458 31.2561 99.3458 29.6658C99.3458 26.3628 98.117 24.7113 95.721 24.7113C94.6151 24.7113 93.6935 25.1395 93.0791 25.9958C92.4033 26.8521 92.0961 28.0755 92.0961 29.6658ZM115.75 37.3116V36.3941C115.442 36.7 114.951 37.0058 114.275 37.2505C113.599 37.4951 112.862 37.6175 112.063 37.6175C109.913 37.6175 108.254 36.9446 107.026 35.599C105.797 34.2533 105.182 32.3571 105.182 29.9716C105.182 27.5861 105.858 25.6288 107.271 24.0996C108.684 22.5705 110.405 21.8365 112.555 21.8365C113.722 21.8365 114.767 22.0811 115.75 22.5705V16.4538L119.313 15.5975V37.3116H115.75ZM115.75 25.69C115.012 25.0783 114.214 24.7725 113.354 24.7725C111.941 24.7725 110.835 25.2006 110.036 26.057C109.237 26.9133 108.869 28.1978 108.869 29.7881C108.869 32.9688 110.405 34.5591 113.476 34.5591C113.845 34.5591 114.214 34.4368 114.767 34.2533C115.258 34.0698 115.565 33.8251 115.75 33.6416V25.69ZM136.577 30.7668H125.641C125.703 31.9901 126.133 32.9076 126.87 33.5805C127.669 34.2533 128.652 34.6203 130.003 34.6203C131.601 34.6203 132.891 34.1921 133.69 33.3358L135.103 36.0271C133.874 37.067 131.969 37.5563 129.45 37.5563C127.116 37.5563 125.273 36.8835 123.921 35.5378C122.569 34.1921 121.893 32.296 121.893 29.8493C121.893 27.4638 122.631 25.5065 124.105 24.0385C125.58 22.5705 127.361 21.8365 129.45 21.8365C131.662 21.8365 133.444 22.5093 134.795 23.7938C136.147 25.1395 136.823 26.791 136.823 28.8095C136.884 29.2376 136.761 29.8493 136.577 30.7668ZM125.764 28.0755H133.259C133.014 25.8735 131.785 24.7113 129.573 24.7113C127.546 24.7725 126.256 25.8735 125.764 28.0755Z" fill="#2C2C2C"/>
<path d="M38.2143 28.3813L37.5999 35.4155L35.5724 34.0086L35.8182 30.461V30.3998V30.3386L35.7567 30.2775L35.6953 30.2163L31.3332 27.3415L31.3947 24.222L38.2143 28.3813ZM27.5241 36.0271L24.3908 33.6416V34.1921C24.3908 34.3145 24.3293 34.4368 24.2679 34.498L21.9332 36.0883L24.5136 38.168L24.5751 38.2291V38.3515L24.6979 40.7981L27.5855 43.1836L27.5241 36.0271ZM7.80256 39.0855L9.27707 46.1196L15.3594 52.5421L14.315 45.4468L7.80256 39.0855ZM13.5163 40.1253L12.0418 30.2775L4.66924 24.1608L6.63524 33.7028L13.5163 40.1253ZM11.1816 24.222L9.15419 10.276L0.675781 5.01562L3.44048 18.1665L11.1816 24.222Z" fill="#004712"/>
<path d="M44.2342 24.589L43.3126 31.2561L38.2747 35.2931L38.8891 28.4425L44.2342 24.589ZM28.1989 36.0271L28.2603 43.2448L34.7113 38.1068L35.1414 31.0726L28.1989 36.0271ZM24.0211 38.9631L14.9284 45.4468L16.0342 52.9091L24.2669 46.3643L24.0211 38.9631ZM23.7754 34.0698L23.3453 24.2831L12.7166 30.3386L14.1911 40.4923L23.7754 34.0698ZM23.0996 18.5946L22.5466 5.38263L9.76758 10.276L11.8565 24.4666L23.0996 18.5946Z" fill="#00B259"/>
<path d="M44.9724 23.855C44.9724 23.7938 44.9724 23.7938 44.9724 23.855V23.7327C44.9724 23.7327 44.9724 23.6715 44.911 23.6715C44.911 23.6715 44.8496 23.6715 44.8496 23.6103L37.477 19.5122C37.3542 19.451 37.2313 19.451 37.1698 19.5122L30.9032 23.3045H30.8418V23.6715L30.7803 26.9745L28.2614 25.323C28.1385 25.2618 28.0156 25.2618 27.8927 25.323L24.145 27.4027L23.9607 23.7327V23.6715V23.6103V23.5492V23.488V23.4268H23.8993L20.0901 20.919L23.6535 19.084C23.7764 19.0228 23.8379 18.9005 23.8379 18.7782L23.162 4.89333V4.83217C23.162 4.83217 23.162 4.771 23.1006 4.771C23.1006 4.771 23.1006 4.70983 23.0392 4.70983L13.3934 0.0611667C13.332 1.36718e-08 13.2706 0 13.2091 0L0.122876 4.037C0.122876 4.037 0.0614377 4.037 0.0614377 4.09817C0.0614377 4.09817 0 4.09817 0 4.15933V4.52633L2.88757 18.5335C2.88757 18.5947 2.94901 18.6558 3.01045 18.717L6.94247 21.7753L4.05489 23.121C4.05489 23.121 3.99345 23.121 3.99345 23.1822C3.99345 23.1822 3.99345 23.2433 3.93202 23.2433V23.3657L6.14378 33.8863C6.14378 33.9475 6.20521 34.0087 6.26665 34.0698L9.03135 36.6388L7.18822 37.7398L7.12678 37.801C7.12678 37.801 7.12678 37.8622 7.06534 37.8622V38.0457L8.7856 46.1808C8.7856 46.242 8.84704 46.3032 8.84704 46.3643L15.5438 53.7043H15.6052C15.6052 53.7043 15.6666 53.7043 15.6666 53.7655H15.9738L24.8209 46.7313C24.8823 46.6702 24.9437 46.5478 24.9437 46.4867L24.7594 41.6545L27.7084 44.1012C27.7084 44.1012 27.7699 44.1012 27.7699 44.1623H28.0771L35.2038 38.535C35.2653 38.4738 35.3267 38.4127 35.3267 38.2903L35.5725 34.7427L37.7228 36.2107H37.9685C37.9685 36.2107 38.03 36.2107 38.03 36.1495L43.8051 31.562C43.8666 31.5008 43.928 31.4397 43.928 31.3785L44.9724 23.855C44.9724 23.9162 44.9724 23.9162 44.9724 23.855ZM38.2757 35.2932L38.8901 28.4425L44.2966 24.589L43.3751 31.2562L38.2757 35.2932ZM35.5725 34.0087L35.8182 30.461V30.3998V30.3387L35.7568 30.2775L35.6953 30.2163L31.3333 27.3415L31.3947 24.222L38.2143 28.4425L37.5999 35.4767L35.5725 34.0087ZM34.6509 38.1068L28.1999 43.2448L28.1385 36.0272L35.081 31.0727L34.6509 38.1068ZM24.3294 46.3643L16.0353 52.9092L14.9294 45.4468L23.9607 39.0243L24.3294 46.3643ZM9.21566 46.1197L7.74116 39.0855L14.315 45.4468L15.3594 52.5422L9.21566 46.1197ZM9.09279 10.276L11.1202 24.222L3.44051 18.1665L0.675815 5.01567L9.09279 10.276ZM22.5477 5.38267L23.1006 18.5947L11.8575 24.4667L9.7686 10.276L22.5477 5.38267ZM23.7764 34.0698L14.1921 40.4312L12.7176 30.2775L23.3463 24.222L23.7764 34.0698ZM12.0418 30.3387L13.5163 40.1865L6.63528 33.7028L4.66927 24.1608L12.0418 30.3387ZM24.6365 38.3515V38.2903V38.2292L24.5751 38.168L21.9947 36.0883L24.3294 34.498C24.4522 34.4368 24.4522 34.3145 24.4522 34.1922V33.6417L27.5856 36.0272L27.647 43.2448L24.7594 40.8593L24.6365 38.3515Z" fill="#2C2C2C"/>
</svg>
