<svg width="118" height="32" viewBox="0 0 118 32" fill="none" xmlns="http://www.w3.org/2000/svg">
<g clip-path="url(#clip0_122_8980)">
<path fill-rule="evenodd" clip-rule="evenodd" d="M42.8413 10.3824L42.94 12.1408C44.0662 10.7808 45.5448 10.1008 47.375 10.1008C50.5466 10.1008 52.1609 11.9152 52.217 15.544V25.5984H48.7975V15.7408C48.7975 14.7752 48.5887 14.0608 48.1713 13.596C47.7539 13.132 47.0708 12.9 46.1228 12.9C44.7429 12.9 43.7146 13.524 43.0403 14.7704V25.5984H39.6191V10.3824H42.8429H42.8413ZM62.41 25.88C60.2427 25.88 58.4847 25.1984 57.1385 23.8344C55.7916 22.4704 55.1181 20.6536 55.1181 18.3848V17.9632C55.1181 16.4448 55.4111 15.0872 55.9979 13.892C56.5839 12.6968 57.4082 11.7664 58.4686 11.1C59.529 10.4352 60.7114 10.1024 62.0167 10.1024C64.0901 10.1024 65.6931 10.7632 66.8234 12.0848C67.9552 13.4072 68.5203 15.2768 68.5203 17.696V19.0744H58.5666C58.6709 20.3304 59.0899 21.324 59.8268 22.0552C60.5637 22.7864 61.4909 23.152 62.6075 23.152C64.1744 23.152 65.4507 22.52 66.4364 21.2536L68.2803 23.012C67.6702 23.9208 66.8563 24.6264 65.8384 25.128C64.8198 25.6296 63.6767 25.88 62.41 25.88ZM62.0022 12.8448C61.063 12.8448 60.3061 13.1728 59.7289 13.8288C59.1509 14.4848 58.7833 15.3992 58.6236 16.5712H65.1417V16.3176C65.0662 15.1736 64.7612 14.3096 64.2266 13.7232C63.6911 13.1376 62.9502 12.8448 62.0022 12.8448ZM75.4598 6.68479V10.3832H78.149V12.9144H75.4598V21.408C75.4598 21.9888 75.5754 22.408 75.805 22.6664C76.0346 22.924 76.4456 23.0528 77.0372 23.0528C77.44 23.0517 77.8413 23.0044 78.2332 22.912V25.556C77.4546 25.772 76.7041 25.8792 75.9808 25.8792C73.3535 25.8792 72.0394 24.4312 72.0394 21.5344V12.9136H69.5317V10.3824H72.0378V6.68399H75.4582L75.4598 6.68479ZM84.3997 25.5992H80.9785V3.99919H84.3997V25.5992ZM91.7623 25.5992H88.3411V10.3832H91.7623V25.5992ZM88.13 6.43119C88.13 5.90719 88.2962 5.47119 88.6293 5.12399C88.9632 4.77759 89.4392 4.60399 90.0581 4.60399C90.6778 4.60399 91.1562 4.77759 91.495 5.12399C91.8321 5.47119 92.0007 5.90719 92.0007 6.43199C92.0007 6.94719 91.8321 7.37599 91.495 7.71839C91.1562 8.06079 90.6778 8.23199 90.0581 8.23199C89.4392 8.23199 88.9632 8.06079 88.6293 7.71839C88.2962 7.37679 88.13 6.94719 88.13 6.43199V6.43119ZM96.6894 25.5992V12.9136H94.3663V10.3824H96.6894V8.99039C96.6894 7.30239 97.1582 5.99999 98.0966 5.08079C99.0358 4.16239 100.349 3.70319 102.038 3.70319C102.639 3.70319 103.277 3.78719 103.953 3.95599L103.869 6.62799C103.437 6.54813 102.999 6.51062 102.56 6.51599C100.926 6.51599 100.11 7.35439 100.11 9.03279V10.3824H103.207V12.9136H100.11V25.5984H96.6894V25.5992ZM111.034 20.7056L114.131 10.3832H117.777L111.724 27.9056C110.795 30.4648 109.218 31.7448 106.994 31.7448C106.496 31.7448 105.947 31.66 105.347 31.4912V28.8472L105.995 28.8896C106.857 28.8896 107.508 28.7328 107.944 28.4184C108.38 28.1048 108.725 27.5776 108.979 26.8368L109.471 25.5288L104.122 10.3832H107.81L111.034 20.7056Z" fill="#2C2C2C"/>
<path d="M22.3854 11.308L22.3742 11.3032C22.3678 11.3008 22.3614 11.2984 22.3557 11.2928C22.3465 11.2829 22.3397 11.2711 22.3358 11.2582C22.3319 11.2453 22.3311 11.2317 22.3333 11.2184L22.9538 7.4376L25.8636 10.3384L22.8374 11.6216C22.829 11.625 22.82 11.6266 22.8109 11.6264H22.7988C22.7948 11.624 22.7908 11.6208 22.7828 11.6128C22.6702 11.4878 22.5355 11.3845 22.3854 11.308ZM26.6062 11.0776L29.7175 14.1784C30.3637 14.8232 30.6872 15.1448 30.8052 15.5176C30.8228 15.5728 30.8373 15.628 30.8485 15.6848L23.4129 12.5464C23.4089 12.5448 23.4049 12.5432 23.4009 12.5416C23.3712 12.5296 23.3367 12.516 23.3367 12.4856C23.3367 12.4552 23.372 12.4408 23.4017 12.4288L23.4113 12.4248L26.6062 11.0776ZM30.7217 16.68C30.5612 16.9808 30.2481 17.2928 29.7183 17.8216L26.2104 21.3168L21.6734 20.3752L21.6494 20.3704C21.6092 20.364 21.5667 20.3568 21.5667 20.3208C21.5494 20.1343 21.4939 19.9533 21.4034 19.7891C21.313 19.6249 21.1896 19.481 21.0409 19.3664C21.0224 19.348 21.0272 19.3192 21.0329 19.2928C21.0329 19.2888 21.0329 19.2848 21.0345 19.2816L21.8878 14.0608L21.891 14.0432C21.8958 14.0032 21.903 13.9568 21.9391 13.9568C22.122 13.9341 22.2985 13.8754 22.4584 13.7841C22.6182 13.6927 22.7583 13.5706 22.8703 13.4248C22.8775 13.4168 22.8823 13.408 22.892 13.4032C22.9177 13.3912 22.9482 13.4032 22.9746 13.4144L30.7217 16.68ZM25.4037 22.1208L19.6353 27.8696L20.6227 21.8216L20.6243 21.8136C20.6251 21.8056 20.6267 21.7976 20.6291 21.7904C20.6371 21.7712 20.658 21.7632 20.6781 21.7552L20.6877 21.7512C20.9039 21.6593 21.0951 21.5175 21.2456 21.3376C21.2648 21.3152 21.2881 21.2936 21.3178 21.2896C21.3255 21.2883 21.3334 21.2883 21.3411 21.2896L25.4029 22.1216L25.4037 22.1208ZM18.4144 29.0864L17.7642 29.7344L10.5758 19.3808C10.5732 19.377 10.5705 19.3733 10.5678 19.3696C10.5565 19.3544 10.5445 19.3392 10.5469 19.3216C10.5469 19.3088 10.5557 19.2976 10.5646 19.288L10.5726 19.2776C10.5943 19.2456 10.6127 19.2136 10.6328 19.1792L10.6489 19.1512L10.6513 19.1488C10.6625 19.1296 10.6729 19.1112 10.6922 19.1008C10.7091 19.0928 10.7323 19.096 10.7508 19.1L18.7146 20.7368C18.7369 20.7403 18.7579 20.7493 18.7756 20.7632C18.786 20.7736 18.7885 20.7848 18.7909 20.7976C18.8464 21.0071 18.9498 21.2009 19.0929 21.364C19.2361 21.527 19.4151 21.6549 19.6161 21.7376C19.6385 21.7488 19.6289 21.7736 19.6185 21.8C19.6133 21.8116 19.6092 21.8236 19.6064 21.836C19.5061 22.444 18.6456 27.6744 18.4144 29.0864ZM17.0562 30.4392C16.577 30.912 16.2944 31.1624 15.9749 31.2632C15.6599 31.3625 15.3218 31.3625 15.0068 31.2632C14.6328 31.1448 14.3093 30.8232 13.6631 30.1784L6.44421 22.984L8.3298 20.0696C8.33863 20.0552 8.34746 20.0424 8.36191 20.032C8.38198 20.0176 8.41088 20.024 8.43496 20.032C8.86775 20.1621 9.33243 20.1387 9.74981 19.9656C9.77149 19.9576 9.79316 19.952 9.81002 19.9672C9.81845 19.9749 9.82599 19.9835 9.8325 19.9928L17.0562 30.4392ZM5.74825 22.2904L4.09224 20.64L7.36252 19.2496C7.37088 19.246 7.37989 19.2441 7.38901 19.244C7.4163 19.244 7.43236 19.2712 7.44681 19.296C7.47967 19.3464 7.51448 19.3955 7.55116 19.4432L7.5616 19.456C7.57123 19.4696 7.56481 19.4832 7.55518 19.496L5.74825 22.2904ZM3.35935 19.9096L1.26425 17.8216C0.907842 17.4664 0.649366 17.2088 0.469556 16.9872L6.83995 18.304C6.84795 18.3055 6.85598 18.3068 6.86403 18.308C6.90337 18.3144 6.94671 18.3216 6.94671 18.3584C6.94671 18.3984 6.89935 18.4168 6.85922 18.432L6.84075 18.44L3.35935 19.9096ZM0.103516 15.9136C0.110776 15.7791 0.135049 15.646 0.175761 15.5176C0.294563 15.1448 0.617257 14.8232 1.26425 14.1784L3.94534 11.5064C5.17979 13.2919 6.41759 15.0751 7.65873 16.856C7.6804 16.8848 7.70448 16.9168 7.6796 16.9408C7.5624 17.0696 7.4452 17.2104 7.36252 17.3632C7.35355 17.3828 7.33975 17.3999 7.32239 17.4128C7.31195 17.4192 7.30071 17.4168 7.28867 17.4144H7.28707L0.103516 15.9136ZM4.66297 10.7912L8.26639 7.1984C8.60594 7.3464 9.83972 7.8656 10.9419 8.3296C11.7767 8.6816 12.5377 9.0016 12.7769 9.1056C12.801 9.1152 12.8226 9.1248 12.8331 9.1488C12.8395 9.1632 12.8363 9.1816 12.8331 9.1968C12.776 9.45614 12.7845 9.72555 12.8578 9.98081C12.931 10.2361 13.0668 10.4692 13.2529 10.6592C13.277 10.6832 13.2529 10.7176 13.232 10.7472L13.2208 10.764L9.56037 16.4144C9.55074 16.4304 9.54191 16.444 9.52586 16.4544C9.50659 16.4664 9.4793 16.4608 9.45682 16.4552C9.31445 16.418 9.1681 16.3982 9.02094 16.396C8.8893 16.396 8.74641 16.42 8.60192 16.4464H8.60112C8.58507 16.4488 8.57062 16.452 8.55777 16.4424C8.54359 16.4308 8.53139 16.4171 8.52165 16.4016L4.66297 10.7912ZM8.99606 6.4728L13.6631 1.8216C14.3093 1.1776 14.6328 0.855201 15.0068 0.737601C15.3218 0.638329 15.6599 0.638329 15.9749 0.737601C16.349 0.855201 16.6725 1.1776 17.3187 1.8216L18.3301 2.8296L15.0108 7.9528C15.0026 7.96772 14.9914 7.98079 14.9779 7.9912C14.9579 8.0048 14.9298 7.9992 14.9057 7.9912C14.644 7.91205 14.3669 7.89764 14.0983 7.94922C13.8298 8.00079 13.5779 8.1168 13.3645 8.2872C13.3428 8.3096 13.3107 8.2968 13.2834 8.2848C12.8499 8.0968 9.4785 6.6768 8.99606 6.4728ZM19.0349 3.532L22.0997 6.5864L21.3612 11.1448V11.1568C21.3605 11.1672 21.3584 11.1774 21.3548 11.1872C21.3467 11.2032 21.3307 11.2064 21.3146 11.2112C21.1567 11.2589 21.008 11.3327 20.8747 11.4296C20.869 11.4337 20.8636 11.4382 20.8587 11.4432C20.8498 11.4528 20.841 11.4616 20.8266 11.4632C20.8148 11.4636 20.8031 11.4617 20.792 11.4576L16.1218 9.48L16.113 9.476C16.0833 9.464 16.048 9.4496 16.048 9.4192C16.0205 9.15983 15.9355 8.90979 15.7991 8.6872C15.7766 8.6504 15.7518 8.612 15.771 8.5744L19.0349 3.532ZM15.8786 10.4168L20.2566 12.2648C20.2807 12.276 20.3072 12.2864 20.3176 12.3112C20.3218 12.3261 20.3218 12.3419 20.3176 12.3568C20.3048 12.4208 20.2936 12.4936 20.2936 12.5672V12.6896C20.2936 12.72 20.2623 12.7328 20.2334 12.7448L20.2245 12.748C19.531 13.0432 10.4875 16.8864 10.4739 16.8864C10.4602 16.8864 10.4458 16.8864 10.4321 16.8728C10.408 16.8488 10.4321 16.8152 10.4538 16.7848C10.4576 16.7795 10.4614 16.7742 10.465 16.7688L14.0628 11.2168L14.0693 11.2072C14.0901 11.1736 14.1142 11.136 14.1527 11.136L14.1889 11.1416C14.2707 11.1528 14.343 11.1632 14.416 11.1632C14.9619 11.1632 15.4676 10.8984 15.7726 10.4456C15.7799 10.4335 15.7891 10.4227 15.7999 10.4136C15.8216 10.3976 15.8537 10.4056 15.8786 10.4168ZM10.8648 17.7648L20.7222 13.5752C20.7222 13.5752 20.7367 13.5752 20.7503 13.5888C20.8041 13.6424 20.8498 13.6784 20.894 13.712L20.9157 13.7256C20.9357 13.7368 20.9558 13.7496 20.9574 13.7704C20.9574 13.7784 20.9574 13.7832 20.9558 13.7904L20.1113 18.96L20.1081 18.9808C20.1025 19.0208 20.0969 19.0664 20.0592 19.0664C19.834 19.0815 19.616 19.1512 19.4239 19.2692C19.2319 19.3873 19.0716 19.5503 18.957 19.744L18.953 19.7504C18.9418 19.7688 18.9313 19.7864 18.9129 19.796C18.896 19.804 18.8743 19.8008 18.8567 19.7968L10.9956 18.1808C10.9876 18.1792 10.8736 17.7656 10.8648 17.7648Z" fill="url(#paint0_radial_122_8980)"/>
</g>
<defs>
<radialGradient id="paint0_radial_122_8980" cx="0" cy="0" r="1" gradientUnits="userSpaceOnUse" gradientTransform="translate(-0.928739 15.5676) rotate(90) scale(4504.19 5217.95)">
<stop stop-color="#20C6B7"/>
<stop offset="1" stop-color="#4D9ABF"/>
</radialGradient>
<clipPath id="clip0_122_8980">
<rect width="118" height="32" fill="white"/>
</clipPath>
</defs>
</svg>
