<svg width="94" height="58" viewBox="0 0 94 58" fill="none" xmlns="http://www.w3.org/2000/svg">
<path d="M46.4607 57.5704C46.1505 57.5704 45.8424 57.489 45.5704 57.3324L42.7364 55.6546C42.3131 55.4179 42.5196 55.3341 42.6592 55.2859C43.2236 55.0883 43.3382 55.0437 43.9406 54.7016C44.0039 54.6654 44.0868 54.6782 44.1516 54.7164L46.3288 56.0084C46.4074 56.0509 46.5189 56.0509 46.5918 56.0084L55.0809 51.1083C55.1595 51.0637 55.2105 50.9723 55.2105 50.8788V41.083C55.2105 40.9852 55.1595 40.8981 55.0792 40.8492L46.5935 35.9534C46.5149 35.9067 46.4108 35.9067 46.3322 35.9534L37.8482 40.8492C37.766 40.896 37.7137 40.9873 37.7137 41.0808V50.8767C37.7137 50.9702 37.7647 51.0594 37.8455 51.1041L40.1701 52.447C41.4323 53.0781 42.2037 52.3344 42.2037 51.5864V41.918C42.2037 41.7799 42.312 41.6737 42.4501 41.6737H43.5254C43.6592 41.6737 43.7697 41.7799 43.7697 41.918V51.5907C43.7697 53.2736 42.8518 54.2404 41.2559 54.2404C40.7651 54.2404 40.3784 54.2404 39.2989 53.7092L37.072 52.4258C36.5216 52.107 36.1816 51.5121 36.1816 50.8767V41.0808C36.1816 40.4434 36.5216 39.8484 37.072 39.5339L45.5695 34.6317C46.1071 34.3278 46.8211 34.3278 47.3545 34.6317L55.8414 39.536C56.3896 39.8526 56.7317 40.4455 56.7317 41.083V50.8788C56.7317 51.5142 56.3896 52.107 55.8414 52.4258L47.3545 57.328C47.0825 57.4852 46.7744 57.5659 46.4599 57.5659" fill="#689F63"/>
<path d="M49.083 50.8204C45.3686 50.8204 44.5898 49.1154 44.5898 47.6853C44.5898 47.5493 44.6995 47.4409 44.8357 47.4409H45.9322C46.0533 47.4409 46.1553 47.5291 46.1744 47.6488C46.3401 48.766 46.8331 49.3296 49.0792 49.3296C50.8683 49.3296 51.6291 48.9254 51.6291 47.9766C51.6291 47.4305 51.4123 47.0247 48.6329 46.7527C46.3083 46.5232 44.8718 46.0111 44.8718 44.1518C44.8718 42.4391 46.3168 41.4191 48.737 41.4191C51.4548 41.4191 52.802 42.3626 52.972 44.3898C52.9784 44.4599 52.9529 44.5279 52.9061 44.5789C52.8594 44.6278 52.7935 44.6575 52.7255 44.6575H51.6227C51.5079 44.6575 51.4081 44.5768 51.3847 44.4663C51.1191 43.2912 50.4774 42.9151 48.7328 42.9151C46.78 42.9151 46.5526 43.595 46.5526 44.105C46.5526 44.7234 46.8204 44.904 49.4553 45.2525C52.0647 45.5988 53.3035 46.0876 53.3035 47.9214C53.3035 49.7701 51.7608 50.8304 49.0707 50.8304M59.4105 40.4417H59.6952C59.929 40.4417 59.9736 40.2781 59.9736 40.1824C59.9736 39.9317 59.8015 39.9317 59.7059 39.9317H59.4126L59.4105 40.4417ZM59.0642 39.6385H59.6952C59.912 39.6385 60.337 39.6385 60.337 40.1229C60.337 40.4608 60.1202 40.5309 59.9906 40.5734C60.2435 40.5904 60.2605 40.7562 60.2945 40.9899C60.3115 41.1365 60.3391 41.3894 60.3901 41.4744H60.0012C59.9906 41.3894 59.9311 40.9219 59.9311 40.8964C59.9056 40.7923 59.8695 40.7413 59.7399 40.7413H59.419V41.4765H59.0642V39.6385ZM58.3056 40.5522C58.3056 41.3129 58.9197 41.9291 59.674 41.9291C60.4347 41.9291 61.0488 41.3001 61.0488 40.5522C61.0488 39.7893 60.4262 39.1837 59.6719 39.1837C58.9282 39.1837 58.3034 39.7808 58.3034 40.55M61.3123 40.5564C61.3123 41.4574 60.575 42.1926 59.6761 42.1926C58.7837 42.1926 58.0399 41.4659 58.0399 40.5564C58.0399 39.6299 58.8007 38.9202 59.6761 38.9202C60.558 38.9202 61.3102 39.6321 61.3102 40.5564" fill="#689F63"/>
<path fill-rule="evenodd" clip-rule="evenodd" d="M20.1731 19.2411C20.1731 18.8501 19.967 18.491 19.6296 18.2966L10.6293 13.1181C10.4773 13.0289 10.3071 12.9821 10.1346 12.9758H10.0415C9.86897 12.9821 9.69876 13.0289 9.54428 13.1181L0.544404 18.2966C0.209092 18.4921 0 18.8512 0 19.2422L0.0197617 33.1901C0.0197617 33.3835 0.119633 33.5641 0.289626 33.6597C0.45537 33.7617 0.663612 33.7617 0.829356 33.6597L6.1799 30.5956C6.51776 30.3946 6.72388 30.0393 6.72388 29.6521V23.1361C6.72388 22.7472 6.93 22.3881 7.2668 22.1947L9.54471 20.8828C9.71385 20.7851 9.89957 20.7366 10.0887 20.7366C10.2748 20.7366 10.4648 20.7846 10.6293 20.8826L12.9061 22.1941C13.2431 22.3875 13.4501 22.7466 13.4501 23.1354V29.6511C13.4501 30.0378 13.659 30.3948 13.9951 30.5945L19.3423 33.6565C19.5101 33.7564 19.719 33.7564 19.8863 33.6565C20.0512 33.5609 20.1557 33.3803 20.1557 33.1869L20.1731 19.2411ZM62.6434 26.5032C62.6434 26.6003 62.5918 26.6902 62.5074 26.7382L59.4161 28.5202C59.3322 28.5684 59.2285 28.5684 59.1448 28.5202L56.053 26.7382C55.968 26.69 55.917 26.6001 55.917 26.5032V22.9342C55.917 22.8369 55.968 22.7472 56.0509 22.6983L59.1405 20.9134C59.2255 20.8645 59.3296 20.8645 59.4146 20.9134L62.5064 22.6983C62.5914 22.7472 62.6424 22.8369 62.6424 22.9342L62.6434 26.5032ZM63.4785 0.0688014C63.3098 -0.02512 63.1045 -0.0225701 62.9379 0.0745386C62.7722 0.172285 62.6698 0.350778 62.6698 0.544146V14.3561C62.6698 14.4921 62.5975 14.6175 62.4798 14.6855C62.3629 14.7535 62.2174 14.7535 62.0995 14.6855L59.8449 13.3869C59.5092 13.1927 59.0957 13.1927 58.7587 13.3869L49.7554 18.583C49.419 18.7764 49.2114 19.1355 49.2114 19.5222V29.9173C49.2114 30.3062 49.419 30.6632 49.7554 30.8587L58.7587 36.0583C59.0948 36.2517 59.5088 36.2517 59.846 36.0583L68.8493 30.8565C69.185 30.661 69.3932 30.3041 69.3932 29.9152V4.00819C69.3932 3.6138 69.1786 3.25108 68.8344 3.05835L63.4785 0.0688014ZM93.4596 22.8403C93.7941 22.6461 94 22.2874 94 21.9006V19.3813C94 18.9937 93.7939 18.6361 93.4588 18.4411L84.5129 13.2478C84.175 13.0523 83.7607 13.0523 83.4228 13.2478L74.4216 18.4432C74.0838 18.6387 73.8777 18.9957 73.8777 19.3845V29.7754C73.8777 30.1664 74.088 30.5276 74.4259 30.721L83.3697 35.8186C83.699 36.0078 84.1028 36.0099 84.4364 35.825L89.8464 32.8183C90.0164 32.7226 90.1248 32.542 90.1248 32.3465C90.1248 32.151 90.0207 31.9683 89.8507 31.8727L80.7943 26.6751C80.6243 26.5795 80.5202 26.3989 80.5202 26.2055V22.9459C80.5202 22.7512 80.6222 22.5719 80.7922 22.475L83.6098 20.8494C83.7777 20.7517 83.9838 20.7517 84.1516 20.8494L86.9714 22.475C87.1393 22.5706 87.2434 22.7512 87.2434 22.9446V25.5073C87.2434 25.7006 87.3475 25.8812 87.5154 25.979C87.6833 26.0746 87.8915 26.0746 88.0594 25.9769L93.4596 22.8403Z" fill="#333333"/>
<path fill-rule="evenodd" clip-rule="evenodd" d="M83.8347 22.3542C83.8984 22.3166 83.9783 22.3166 84.0429 22.3542L85.7705 23.3508C85.8351 23.3882 85.8746 23.457 85.8746 23.5314V25.5267C85.8746 25.6011 85.8351 25.6699 85.7705 25.7073L84.0429 26.7039C83.9783 26.7415 83.8984 26.7415 83.8347 26.7039L82.1082 25.7073C82.0423 25.6699 82.002 25.6011 82.002 25.5267V23.5314C82.002 23.457 82.0402 23.3882 82.1061 23.3508L83.8347 22.3542Z" fill="#689F63"/>
<mask id="mask0_122_8990" style="mask-type:luminance" maskUnits="userSpaceOnUse" x="24" y="13" width="21" height="23">
<path d="M34.1554 13.2997L25.2031 18.4669C24.8678 18.6602 24.6621 19.0172 24.6621 19.4031V29.7447C24.6621 30.1308 24.8678 30.4875 25.2031 30.6809L34.156 35.8521C34.4907 36.0448 34.9034 36.0448 35.2376 35.8521L44.189 30.6809C44.5227 30.4875 44.7288 30.1305 44.7288 29.7447V19.4031C44.7288 19.0172 44.5227 18.6602 44.1869 18.4669L35.2368 13.2997C35.0689 13.2034 34.8819 13.1552 34.6949 13.1552C34.5079 13.1552 34.3209 13.2034 34.1531 13.2997" fill="white"/>
</mask>
<g mask="url(#mask0_122_8990)">
<path d="M53.7717 17.5894L28.5457 5.22455L15.6113 31.6105L40.8367 43.976L53.7717 17.5894Z" fill="url(#paint0_linear_122_8990)"/>
</g>
<mask id="mask1_122_8990" style="mask-type:luminance" maskUnits="userSpaceOnUse" x="24" y="13" width="21" height="23">
<path d="M24.8828 30.4012C24.9684 30.5124 25.0755 30.6086 25.2016 30.6809L32.881 35.1166L34.1602 35.8519C34.3514 35.9624 34.5695 36.0091 34.7837 35.9932C34.8551 35.9874 34.9265 35.9741 34.9961 35.9543L44.438 18.666C44.3658 18.5873 44.2812 18.5215 44.1864 18.4662L38.3246 15.0812L35.2261 13.2984C35.1381 13.2474 35.0427 13.2113 34.9456 13.1858L24.8828 30.4012Z" fill="white"/>
</mask>
<g mask="url(#mask1_122_8990)">
<path d="M13.9766 21.2467L31.7887 45.3545L55.3455 27.9502L37.5323 3.84296L13.9766 21.2467Z" fill="url(#paint1_linear_122_8990)"/>
</g>
<mask id="mask2_122_8990" style="mask-type:luminance" maskUnits="userSpaceOnUse" x="25" y="13" width="20" height="23">
<path d="M34.5858 13.1611C34.4355 13.176 34.2887 13.2228 34.1533 13.2997L25.2266 18.452L34.8524 35.9847C34.9863 35.9655 35.1181 35.9209 35.2371 35.8521L44.1893 30.6809C44.4656 30.5207 44.6547 30.2495 44.7121 29.9423L34.8992 13.1788C34.8269 13.1645 34.7547 13.1571 34.6803 13.1571C34.6506 13.1571 34.6208 13.1586 34.5911 13.1614" fill="white"/>
</mask>
<g mask="url(#mask2_122_8990)">
<path d="M25.2266 13.1571V35.9851H44.7084V13.1571H25.2266Z" fill="url(#paint2_linear_122_8990)"/>
</g>
<defs>
<linearGradient id="paint0_linear_122_8990" x1="41.1511" y1="11.3876" x2="28.2176" y2="37.7718" gradientUnits="userSpaceOnUse">
<stop offset="0.3" stop-color="#3E863D"/>
<stop offset="0.5" stop-color="#55934F"/>
<stop offset="0.8" stop-color="#5AAD45"/>
</linearGradient>
<linearGradient id="paint1_linear_122_8990" x1="22.9894" y1="33.4388" x2="46.5471" y2="16.0324" gradientUnits="userSpaceOnUse">
<stop offset="0.57" stop-color="#3E863D"/>
<stop offset="0.72" stop-color="#619857"/>
<stop offset="1" stop-color="#76AC64"/>
</linearGradient>
<linearGradient id="paint2_linear_122_8990" x1="25.2331" y1="24.5717" x2="44.7121" y2="24.5717" gradientUnits="userSpaceOnUse">
<stop offset="0.16" stop-color="#6BBF47"/>
<stop offset="0.38" stop-color="#79B461"/>
<stop offset="0.47" stop-color="#75AC64"/>
<stop offset="0.7" stop-color="#659E5A"/>
<stop offset="0.9" stop-color="#3E863D"/>
</linearGradient>
</defs>
</svg>
