<svg width="122" height="43" viewBox="0 0 122 43" fill="none" xmlns="http://www.w3.org/2000/svg">
<path fill-rule="evenodd" clip-rule="evenodd" d="M23.5974 13.1003C29.0804 13.1003 34.174 13.8926 38.0146 15.2242C42.6419 16.8285 45.487 19.2604 45.487 21.4624C45.487 23.757 42.4718 26.3405 37.5027 27.9986C33.7459 29.2521 28.8022 29.9065 23.5974 29.9065C18.261 29.9065 13.2078 29.2922 9.40866 27.9848C4.60208 26.3303 1.70703 23.7133 1.70703 21.4624C1.70703 19.2782 4.42348 16.8652 8.98577 15.2633C12.8407 13.9098 18.06 13.1003 23.5967 13.1003H23.5974Z" stroke="#0A7EA4" stroke-width="2.5"/>
<path fill-rule="evenodd" clip-rule="evenodd" d="M16.3683 17.3054C19.1076 12.522 22.3336 8.47408 25.3977 5.7887C29.0893 2.55322 32.6025 1.28612 34.4965 2.38606C36.4704 3.53241 37.1863 7.45366 36.13 12.617C35.3323 16.5208 33.4247 21.1604 30.8245 25.7012C28.1585 30.3568 25.1058 34.4585 22.0835 37.1189C18.2592 40.4857 14.5618 41.7041 12.6256 40.5796C10.7468 39.4893 10.0283 35.9132 10.9296 31.1326C11.6912 27.0934 13.6023 22.1356 16.3674 17.3054L16.3683 17.3054Z" stroke="#0A7EA4" stroke-width="2.5"/>
<path fill-rule="evenodd" clip-rule="evenodd" d="M16.3754 25.7134C13.6285 20.9354 11.7582 16.0981 10.9775 12.0836C10.0378 7.24671 10.7022 3.54854 12.5946 2.4454C14.5665 1.29569 18.2973 2.62936 22.2116 6.12964C25.1711 8.77599 28.2101 12.7568 30.8179 17.2933C33.4915 21.9443 35.4954 26.6564 36.2749 30.622C37.2613 35.6403 36.4629 39.4746 34.5285 40.6024C32.6516 41.6967 29.2169 40.5381 25.5546 37.3641C22.4601 34.6825 19.1495 30.5389 16.3754 25.7133V25.7134Z" stroke="#0A7EA4" stroke-width="2.5"/>
<path d="M23.5975 25.5751C25.8529 25.5751 27.6813 23.7338 27.6813 21.4624C27.6813 19.191 25.8529 17.3496 23.5975 17.3496C21.342 17.3496 19.5137 19.191 19.5137 21.4624C19.5137 23.7338 21.342 25.5751 23.5975 25.5751Z" fill="#0A7EA4"/>
<path fill-rule="evenodd" clip-rule="evenodd" d="M63.9233 24.3542L68.9288 31.9702L66.2039 31.956L61.4781 24.5365H57.7804V31.956H55.4727V13.283H62.9222C66.3144 13.283 68.7325 15.4792 68.7325 18.9109C68.7325 22.2834 66.453 24.1294 63.9233 24.3542ZM66.3438 18.9239C66.3438 16.8235 64.8433 15.368 62.646 15.368H57.7815V22.507H62.646V22.5094C64.8421 22.5094 66.3438 21.0243 66.3438 18.9239Z" fill="#2C2C2C"/>
<path fill-rule="evenodd" clip-rule="evenodd" d="M82.8572 30.2342C81.5224 31.5773 79.7164 32.305 77.5192 32.305L77.518 32.2944C73.543 32.2944 70.6795 29.4224 70.6795 25.1944C70.6795 21.2752 73.4584 18.111 77.2948 18.111C81.3544 18.111 83.7455 21.3036 83.7455 25.3624V25.8949H72.8768C73.0436 28.4415 74.8237 30.5691 77.7142 30.5691C79.2429 30.5691 80.7986 29.9538 81.8561 28.8615L82.8572 30.2342ZM77.2701 19.8445C74.4054 19.8445 72.9896 22.2822 72.8779 24.353H81.6904C81.6622 22.3366 80.3286 19.8445 77.2701 19.8445Z" fill="#2C2C2C"/>
<path fill-rule="evenodd" clip-rule="evenodd" d="M92.3947 18.1098C95.2311 18.1098 97.5929 19.3984 97.5929 22.6739V31.969L95.5096 31.9666V30.4283C94.3981 31.6601 92.8682 32.3039 91.0611 32.3039C88.7792 32.3039 86.3611 30.7632 86.3611 27.8238C86.3611 24.8003 88.7816 23.3721 91.0611 23.3721C92.8964 23.3721 94.4251 23.9602 95.5096 25.2204V22.7851C95.5096 20.9652 94.0632 19.9297 92.1174 19.9297C90.5053 19.9297 89.1975 20.5179 88.0025 21.8053L87.0296 20.3498C88.4749 18.8375 90.1974 18.1098 92.3947 18.1098ZM88.5031 27.8533C88.5031 29.5621 89.8661 30.7927 91.8119 30.7927C93.2853 30.7927 94.7036 30.233 95.5096 29.1136V26.5659C94.7024 25.4453 93.2853 24.8855 91.8119 24.8855C89.8661 24.8855 88.5031 26.1174 88.5031 27.8533Z" fill="#2C2C2C"/>
<path d="M112.595 29.9538C111.566 31.2968 110.121 32.305 107.674 32.305V32.2956C103.671 32.2956 100.975 29.2272 100.975 25.1956C100.975 21.1924 103.671 18.1121 107.674 18.1121C110.121 18.1121 111.567 19.1192 112.595 20.4634L111.205 21.7509C110.328 20.5202 109.188 19.9877 107.798 19.9877C104.935 19.9877 103.157 22.1994 103.157 25.1944C103.157 28.1894 104.934 30.4295 107.798 30.4295C109.176 30.4295 110.316 29.8697 111.205 28.6663L112.595 29.9538Z" fill="#2C2C2C"/>
<path d="M121.41 31.4377C120.881 31.9406 120.129 32.305 118.907 32.305V32.3074C116.933 32.3074 115.932 31.1596 115.932 29.1432V20.2954H113.708V18.447H115.932V14.7515H118.018V18.447H120.744V20.2942H118.018V28.6935C118.018 29.7017 118.464 30.4295 119.381 30.4295C119.977 30.4295 120.521 30.1774 120.799 29.8697L121.41 31.4377Z" fill="#2C2C2C"/>
<path fill-rule="evenodd" clip-rule="evenodd" d="M63.9233 24.3542L68.9288 31.9702L66.2039 31.956L61.4781 24.5365H57.7804V31.956H55.4727V13.283H62.9222C66.3144 13.283 68.7325 15.4792 68.7325 18.9109C68.7325 22.2834 66.453 24.1294 63.9233 24.3542ZM66.3438 18.9239C66.3438 16.8235 64.8433 15.368 62.646 15.368H57.7815V22.507H62.646V22.5094C64.8421 22.5094 66.3438 21.0243 66.3438 18.9239Z" stroke="#2C2C2C"/>
<path fill-rule="evenodd" clip-rule="evenodd" d="M82.8572 30.2342C81.5224 31.5773 79.7164 32.305 77.5192 32.305L77.518 32.2944C73.543 32.2944 70.6795 29.4224 70.6795 25.1944C70.6795 21.2752 73.4584 18.111 77.2948 18.111C81.3544 18.111 83.7455 21.3036 83.7455 25.3624V25.8949H72.8768C73.0436 28.4415 74.8237 30.5691 77.7142 30.5691C79.2429 30.5691 80.7986 29.9538 81.8561 28.8615L82.8572 30.2342ZM77.2701 19.8445C74.4054 19.8445 72.9896 22.2822 72.8779 24.353H81.6904C81.6622 22.3366 80.3286 19.8445 77.2701 19.8445Z" stroke="#2C2C2C"/>
<path fill-rule="evenodd" clip-rule="evenodd" d="M92.3947 18.1098C95.2311 18.1098 97.5929 19.3984 97.5929 22.6739V31.969L95.5096 31.9666V30.4283C94.3981 31.6601 92.8682 32.3039 91.0611 32.3039C88.7792 32.3039 86.3611 30.7632 86.3611 27.8238C86.3611 24.8003 88.7816 23.3721 91.0611 23.3721C92.8964 23.3721 94.4251 23.9602 95.5096 25.2204V22.7851C95.5096 20.9652 94.0632 19.9297 92.1174 19.9297C90.5053 19.9297 89.1975 20.5179 88.0025 21.8053L87.0296 20.3498C88.4749 18.8375 90.1974 18.1098 92.3947 18.1098ZM88.5031 27.8533C88.5031 29.5621 89.8661 30.7927 91.8119 30.7927C93.2853 30.7927 94.7036 30.233 95.5096 29.1136V26.5659C94.7024 25.4453 93.2853 24.8855 91.8119 24.8855C89.8661 24.8855 88.5031 26.1174 88.5031 27.8533Z" stroke="#2C2C2C"/>
<path d="M112.595 29.9538C111.566 31.2968 110.121 32.305 107.674 32.305V32.2956C103.671 32.2956 100.975 29.2272 100.975 25.1956C100.975 21.1924 103.671 18.1121 107.674 18.1121C110.121 18.1121 111.567 19.1192 112.595 20.4634L111.205 21.7509C110.328 20.5202 109.188 19.9877 107.798 19.9877C104.935 19.9877 103.157 22.1994 103.157 25.1944C103.157 28.1894 104.934 30.4295 107.798 30.4295C109.176 30.4295 110.316 29.8697 111.205 28.6663L112.595 29.9538Z" stroke="#2C2C2C"/>
<path d="M121.41 31.4377C120.881 31.9406 120.129 32.305 118.907 32.305V32.3074C116.933 32.3074 115.932 31.1596 115.932 29.1432V20.2954H113.708V18.447H115.932V14.7515H118.018V18.447H120.744V20.2942H118.018V28.6935C118.018 29.7017 118.464 30.4295 119.381 30.4295C119.977 30.4295 120.521 30.1774 120.799 29.8697L121.41 31.4377Z" stroke="#2C2C2C"/>
</svg>
