<svg width="95" height="54" viewBox="0 0 95 54" fill="none" xmlns="http://www.w3.org/2000/svg">
<path d="M16.3267 50.88C16.9873 52.8178 20.2124 51.3702 17.8897 50.3531C16.3254 49.9924 15.2324 48.9677 15.3553 47.9873C15.2124 45.5061 19.5105 45.2 19.993 47.4997L18.8486 48.0788C18.4099 47.5327 18.1617 47.2737 17.7118 47.3105C16.7829 47.2915 16.3843 48.3086 17.6127 48.7251C21.1926 49.3931 20.903 53.1937 17.703 53.2242C16.4345 53.247 14.9767 52.3823 15.0707 51.1302L16.3267 50.88Z" fill="#2C2C2C" stroke="#2C2C2C" stroke-width="0.5" stroke-miterlimit="10" stroke-linejoin="round"/>
<path d="M27.9846 46.0369C28.1651 46.0229 27.9846 50.3696 28.0486 50.4343C28.0486 52.254 26.7212 53.228 25.1543 53.228C21.2812 53.2889 22.4256 48.6375 22.2714 46.1042C22.1924 45.9619 23.7329 46.0737 23.7542 46.0407C23.7626 46.0405 23.7709 46.042 23.7786 46.0451C23.7864 46.0482 23.7934 46.0529 23.7994 46.0588C23.8053 46.0647 23.81 46.0718 23.8133 46.0796C23.8165 46.0873 23.8182 46.0957 23.8182 46.1042V50.4381C23.7768 52.4115 26.5394 52.4038 26.5031 50.4381V46.0953C26.4354 45.9569 27.9533 46.0711 27.9846 46.0369Z" fill="#2C2C2C" stroke="#2C2C2C" stroke-width="0.5" stroke-miterlimit="10" stroke-linejoin="round"/>
<path d="M30.5433 53.0489C30.6047 52.9816 30.4179 46.0229 30.6059 46.0368H33.6067C36.5736 45.9759 36.5987 50.6972 33.6067 50.6159H32.154C32.001 50.6159 32.1301 52.9689 32.09 53.0489C32.159 53.1937 30.6348 53.0781 30.6072 53.1137C30.5902 53.1137 30.574 53.1068 30.562 53.0947C30.55 53.0826 30.5433 53.0661 30.5433 53.0489ZM33.4074 49.3829C34.5894 49.4464 34.5706 47.2102 33.4074 47.28C33.3635 47.3206 32.0462 47.1949 32.09 47.3448C32.2191 49.6978 31.5072 49.3791 33.4074 49.3829Z" fill="#2C2C2C" stroke="#2C2C2C" stroke-width="0.5" stroke-miterlimit="10" stroke-linejoin="round"/>
<path d="M37.887 53.0489C37.9496 52.9816 37.7691 46.0229 37.9509 46.0368H40.9517C43.9186 45.9759 43.9436 50.6972 40.9517 50.6159H39.4976C39.346 50.6159 39.4751 52.9689 39.4337 53.0489C39.5027 53.1937 37.9797 53.0781 37.9509 53.1137C37.9339 53.1137 37.9177 53.1068 37.9057 53.0947C37.8937 53.0826 37.887 53.0661 37.887 53.0489ZM40.7511 49.3829C41.9331 49.4464 41.9156 47.2102 40.7511 47.28C40.7072 47.3206 39.3911 47.1949 39.4337 47.3448C39.5641 49.6978 38.8521 49.3791 40.7511 49.3829Z" fill="#2C2C2C" stroke="#2C2C2C" stroke-width="0.5" stroke-miterlimit="10" stroke-linejoin="round"/>
<path d="M49.9449 51.9365C49.9186 51.9619 50.0126 53.1835 49.881 53.1162H45.2971C45.1718 53.0603 45.1718 46.0952 45.2971 46.0394C45.3335 46.0673 46.8452 45.9645 46.7812 46.1029V51.8095C46.7499 52.0076 49.9738 51.7321 49.9449 51.9365Z" fill="#2C2C2C" stroke="#2C2C2C" stroke-width="0.5" stroke-miterlimit="10" stroke-linejoin="round"/>
<path d="M53.6268 48.7962L55.2638 46.0673C55.2902 45.9822 57.0274 46.0673 57.0788 46.0368C57.0563 46.0838 57.1027 46.2197 57.0688 46.2553C57.0575 46.2908 54.3839 50.1918 54.3952 50.2311V53.0489C54.3952 53.0661 54.3885 53.0826 54.3765 53.0947C54.3645 53.1068 54.3482 53.1137 54.3313 53.1137C54.2987 53.0807 52.782 53.1899 52.8484 53.0489V50.2553C52.8585 50.2134 50.1861 46.2946 50.1748 46.2591C50.1385 46.2235 50.1748 46.0787 50.1635 46.0407C50.2149 46.0673 51.9535 45.986 51.9785 46.0711L53.6168 48.8L53.6268 48.7962Z" fill="#2C2C2C" stroke="#2C2C2C" stroke-width="0.5" stroke-miterlimit="10" stroke-linejoin="round"/>
<path d="M65.3811 45.9251C66.4189 45.953 67.3089 46.2362 67.8591 46.8648L67.2826 47.9429C66.736 47.7715 66.2071 47.247 65.3911 47.3207C62.3828 47.2267 62.3828 51.9238 65.3911 51.8299C66.2071 51.9023 66.736 51.3791 67.2826 51.2077C67.2663 51.2343 67.9732 52.3619 67.8416 52.3683C62.1722 56.254 58.2915 46.5016 65.3811 45.9251Z" fill="#2C2C2C" stroke="#2C2C2C" stroke-width="0.5" stroke-miterlimit="10" stroke-linejoin="round"/>
<path d="M72.8962 45.9251C77.6593 46.0127 77.6593 53.1378 72.8962 53.2242C68.1205 53.1391 68.1205 46.0102 72.8962 45.9251ZM72.8962 51.7892C75.64 51.8286 75.64 47.3207 72.8962 47.3613C70.1373 47.3194 70.1386 51.8311 72.8962 51.7892Z" fill="#2C2C2C" stroke="#2C2C2C" stroke-width="0.5" stroke-miterlimit="10" stroke-linejoin="round"/>
<path d="M78.9741 51.4655C80.1975 51.4362 80.2163 53.2572 78.9741 53.2242C77.7395 53.2597 77.757 51.4286 78.9741 51.4655Z" fill="#2C2C2C" stroke="#2C2C2C" stroke-width="0.5" stroke-miterlimit="10" stroke-linejoin="round"/>
<path d="M22.779 34.8813C22.7345 34.8752 22.6893 34.8785 22.6462 34.891C22.6031 34.9034 22.5629 34.9248 22.5283 34.9537C21.5381 35.7689 20.2583 36.3162 19.3458 36.3441C17.8955 36.3314 17.0708 35.1657 16.2122 34.0089C16.1599 33.9398 16.0829 33.8942 15.9978 33.8819L14.4548 33.6508C14.1565 33.6064 14.4122 34.4445 14.6065 34.6794C15.9941 36.3581 16.3388 37.9518 19.3069 37.9594C21.3776 37.9594 22.3428 36.8991 23.6853 35.5467C23.7286 35.5033 23.7591 35.4486 23.7734 35.3887C23.7877 35.3287 23.7852 35.2659 23.7661 35.2074C23.7471 35.1488 23.7123 35.0967 23.6657 35.0571C23.6191 35.0174 23.5625 34.9917 23.5022 34.9829L22.779 34.8813Z" fill="#2C2C2C" stroke="#2C2C2C" stroke-width="0.5" stroke-miterlimit="10" stroke-linejoin="round"/>
<path d="M19.1186 32.2832C19.1524 32.2337 20.2366 30.974 20.2705 30.9245C27.7536 19.8362 13.7901 16.8699 13.6497 10.2261C13.29 3.57464 26.6305 -0.868539 27.2184 4.71622C27.1469 7.02353 24.9195 8.44067 23.7087 9.38162C23.5031 9.55178 23.2687 9.67368 23.2625 10.028C23.6122 11.7613 25.8471 9.61019 27.0604 8.55241C28.2951 7.3067 28.9206 6.00511 28.9206 4.68194C28.156 -3.76759 11.4838 1.81591 11.94 10.2311C12.1356 18.0381 29.081 21.5099 15.723 33.2496C3.43158 11.4286 -6.64243 38.1677 8.34387 37.915C12.1594 37.8515 15.7706 35.9696 18.9782 32.4394L19.1186 32.2832ZM6.16035 35.8388C-1.62736 34.1283 4.82668 17.2 14.3479 34.188C12.7172 35.2902 10.021 36.6832 6.16035 35.835V35.8388Z" fill="#2C2C2C" stroke="#2C2C2C" stroke-width="0.5" stroke-miterlimit="10" stroke-linejoin="round"/>
<path d="M93.34 17.7054C92.2959 17.7054 90.6939 17.4768 89.1961 17.2343C89.5357 16.5994 91.901 13.3981 92.4663 12.5714C92.8536 12.0076 92.8499 11.487 92.717 11.2902C91.4448 9.41208 89.5571 13.068 87.2545 16.9587C86.0562 16.8229 83.2196 16.6807 82.2407 16.6819C79.8779 16.5791 78.2183 18.2311 79.9305 18.7391C81.184 18.0483 84.5508 18.1613 86.2843 18.4445C83.2284 23.3537 81.184 28.5346 81.0674 31.5137C80.2151 32.3645 76.2328 36.4661 71.3243 36.4661C69.1045 36.4838 67.7796 35.5149 67.8146 34.0648C84.1647 30.8051 80.2364 19.5238 69.6121 27.7638C67.6956 29.3181 66.4584 31.1695 66.0899 32.8356C64.8101 34.2426 62.8309 36.1219 61.2729 36.1676C59.1809 36.1511 58.3899 33.5873 56.9259 32.3886C59.9981 30.4483 67.7871 26.8927 64.4617 24.7759C64.3531 24.7814 64.2481 24.8168 64.158 24.8784C64.0678 24.9399 63.996 25.0252 63.9502 25.1251C62.0839 28.8305 54.5318 30.9257 51.4232 34.1295C53.7296 28.5727 65.7815 20.6692 68.1443 13.1327C68.4201 11.6241 67.2255 10.4191 65.6374 10.4191C61.4922 10.4191 58.5165 16.1105 52.3395 28.5295C50.8755 33.3943 45.0695 36.4673 41.2941 36.4368C34.0002 35.7003 42.0273 25.8527 46.5699 26.2781C47.8233 26.2464 47.609 27.5632 46.9459 28.0813C46.3593 28.5283 46.8205 29.2051 47.4134 29.1987C49.8677 28.3429 49.6697 24.7543 46.2264 24.8318C44.3826 24.6616 42.179 25.7765 40.3465 27.4146C38.8389 28.4585 37.2728 29.4129 35.656 30.273C36.6187 27.6838 35.6109 24.7848 32.105 24.828C28.4061 24.6045 23.4649 29.7511 22.6677 33.6318C22.2829 35.5035 23.5652 36.7784 23.5627 36.7759C26.8217 39.8794 32.0122 36.1791 34.5768 32.3391C35.5947 31.9014 36.5877 31.4067 37.5513 30.8572C35.834 33.9746 36.3818 37.7841 41.0985 37.9683C44.3249 37.9683 47.2931 36.1613 49.3651 34.6527C48.7809 36.4432 47.9549 37.4375 49.4904 37.84C50.0294 37.8629 50.5383 36.9981 51.0585 36.5181C52.2568 35.2699 53.608 34.4191 55.4568 33.2699C57.3019 34.9753 57.8522 37.7791 61.244 37.7867C63.5491 37.7867 64.483 36.3899 66.0962 34.8394C68.5304 41.3156 78.0604 36.4432 81.2066 33.261C81.3842 34.1147 81.7266 34.9245 82.2143 35.6436C82.702 36.3628 83.3252 36.9772 84.0481 37.4514C84.8172 37.9007 85.7078 38.0893 86.5901 37.9899C87.3911 37.8781 88.721 37.2978 88.187 36.7937C87.8448 36.4724 86.9511 36.6768 86.3883 36.6527C85.3329 36.607 84.8554 36.1181 84.4492 35.7638C80.1248 31.9695 84.5357 24.8927 88.271 18.6641C89.9832 18.6959 93.7712 20.0724 94.1622 18.2502C94.1635 18.0445 94.0557 17.7054 93.34 17.7054ZM76.293 26.3797C79.7876 27.2102 72.8648 32.1651 67.9676 32.4534C68.1844 30.1143 73.4025 26.1587 76.2955 26.3797H76.293ZM65.6374 12.1905C66.5148 12.1905 66.5975 12.8661 66.2767 13.8514C65.2401 17.0362 56.5223 25.6749 55.151 27.0654C54.7574 27.4641 54.4591 27.7791 54.236 28.0267C60.0219 17.1924 62.6943 12.1905 65.6374 12.1905ZM53.7847 28.8661C54.0668 28.7772 54.5819 28.4076 53.6093 29.1949L53.7847 28.8661ZM26.4106 36.2591C21.5647 35.6127 26.0533 30.3226 26.0533 30.3226C26.0533 30.3226 25.137 32.0076 25.5996 32.8546C26.2526 34.0508 27.5587 34.687 31.8067 33.2026C30.0894 34.9664 27.7342 36.4508 26.4106 36.2591ZM33.4136 30.9981C31.9784 31.9645 29.2321 32.5549 28.3371 32.6768C24.7949 33.1607 29.1381 26.5003 32.2717 26.2857C35.0606 26.8661 34.8726 28.7848 33.4136 30.9981Z" fill="#2C2C2C" stroke="#2C2C2C" stroke-width="0.5" stroke-miterlimit="10" stroke-linejoin="round"/>
<path d="M89.0961 35.6343C88.2125 36.2223 87.3714 36.5232 86.6193 36.541C85.4423 36.5334 84.4408 36.0559 83.5245 34.72C83.5007 34.6832 83.3904 34.7315 83.3491 34.72L81.9201 34.4508C81.8878 34.4445 81.8544 34.4474 81.8235 34.4591C81.7927 34.4707 81.7656 34.4908 81.7453 34.517C81.725 34.5433 81.7121 34.5747 81.7083 34.6078C81.7044 34.6409 81.7096 34.6745 81.7233 34.7048C82.2686 35.934 83.878 38.2946 86.583 38.061C88.3792 37.9061 89.3518 37.3258 90.218 36.4305C90.5652 36.0699 90.7708 35.4489 90.2995 35.1607C89.9084 34.927 89.1325 35.6089 89.0961 35.6343Z" fill="#2C2C2C" stroke="#2C2C2C" stroke-width="0.5" stroke-miterlimit="10" stroke-linejoin="round"/>
</svg>
