<svg width="32" height="32" viewBox="0 0 32 32" fill="none" xmlns="http://www.w3.org/2000/svg">
<path d="M24.5727 7.59182C22.9304 6.83699 21.1962 6.30181 19.4148 6C19.1708 6.43705 18.9502 6.88682 18.7539 7.34741C16.8562 7.0608 14.9265 7.0608 13.0288 7.34741C12.8331 6.88685 12.613 6.43708 12.3695 6C10.5871 6.30589 8.85186 6.842 7.20691 7.59495C3.94282 12.4362 3.05844 17.16 3.50063 21.8148C5.41183 23.2314 7.5512 24.3087 9.82569 25C10.3366 24.3079 10.7897 23.5748 11.1804 22.8081C10.4409 22.5311 9.72719 22.1893 9.04755 21.7866C9.22776 21.655 9.40224 21.5239 9.571 21.3933C11.5493 22.3262 13.7084 22.8098 15.8945 22.8098C18.0806 22.8098 20.2397 22.3262 22.218 21.3933C22.3899 21.5354 22.5643 21.6665 22.7414 21.7866C22.06 22.1899 21.3448 22.5327 20.6039 22.8112C20.993 23.5774 21.4461 24.3091 21.9586 24.9984C24.2344 24.3091 26.3754 23.2333 28.2883 21.8179C28.8071 16.4189 27.4024 11.739 24.5727 7.59182ZM11.7398 18.9508C10.5069 18.9508 9.48975 17.8305 9.48975 16.4502C9.48975 15.0699 10.4726 13.9387 11.7382 13.9387C13.0038 13.9387 14.0132 15.0699 13.9913 16.4502C13.9695 17.829 12.9976 18.9523 11.7413 18.9523M20.0476 18.9523C18.8133 18.9523 17.7976 17.8321 17.7976 16.4518C17.7976 15.0715 18.782 13.9403 20.0476 13.9403C21.3133 13.9403 22.3164 15.0715 22.2945 16.4518C22.2727 17.8305 21.3039 18.9523 20.0476 18.9523Z" fill="#2C2C2C"/>
</svg>
