<svg width="32" height="32" viewBox="0 0 32 32" fill="none" xmlns="http://www.w3.org/2000/svg">
<path d="M16 5C14.5555 5 13.1251 5.27833 11.7905 5.81911C10.4559 6.35988 9.24327 7.15251 8.22183 8.15173C6.15893 10.1698 5 12.9068 5 15.7607C5 20.5169 8.157 24.5522 12.524 25.9833C13.074 26.0694 13.25 25.7358 13.25 25.4453V23.6267C10.203 24.2724 9.554 22.1848 9.554 22.1848C9.048 20.9366 8.333 20.603 8.333 20.603C7.332 19.9358 8.41 19.9573 8.41 19.9573C9.51 20.0327 10.093 21.0657 10.093 21.0657C11.05 22.7013 12.667 22.2171 13.294 21.9588C13.393 21.2594 13.679 20.7859 13.987 20.5169C11.545 20.2479 8.982 19.3225 8.982 15.2226C8.982 14.0282 9.4 13.0705 10.115 12.3065C10.005 12.0375 9.62 10.9184 10.225 9.46568C10.225 9.46568 11.149 9.17515 13.25 10.5633C14.119 10.3265 15.065 10.2082 16 10.2082C16.935 10.2082 17.881 10.3265 18.75 10.5633C20.851 9.17515 21.775 9.46568 21.775 9.46568C22.38 10.9184 21.995 12.0375 21.885 12.3065C22.6 13.0705 23.018 14.0282 23.018 15.2226C23.018 19.3332 20.444 20.2371 17.991 20.5061C18.387 20.8397 18.75 21.4961 18.75 22.4969V25.4453C18.75 25.7358 18.926 26.0802 19.487 25.9833C23.854 24.5414 27 20.5169 27 15.7607C27 14.3476 26.7155 12.9483 26.1627 11.6427C25.6099 10.3372 24.7996 9.15095 23.7782 8.15173C22.7567 7.15251 21.5441 6.35988 20.2095 5.81911C18.8749 5.27833 17.4445 5 16 5Z" fill="#2C2C2C"/>
</svg>
