<?xml version="1.0" encoding="UTF-8" standalone="no"?>
<!DOCTYPE svg PUBLIC "-//W3C//DTD SVG 1.1//EN" "http://www.w3.org/Graphics/SVG/1.1/DTD/svg11.dtd">
<svg width="100%" height="100%" viewBox="0 0 2500 2500" version="1.1" xmlns="http://www.w3.org/2000/svg" xmlns:xlink="http://www.w3.org/1999/xlink" xml:space="preserve" xmlns:serif="http://www.serif.com/" style="fill-rule:evenodd;clip-rule:evenodd;stroke-linejoin:round;stroke-miterlimit:2;">
    <path d="M2291,1029.47C2346.1,864.043 2327.12,682.623 2238.99,532.175C2106.74,301.865 1839.05,182.632 1579.39,238.378C1463.68,107.958 1297.09,33.676 1122.74,34.756C857.286,34.118 620.25,206.138 538.551,458.71C367.643,493.68 219.916,600.84 133.615,752.447C0.357,982.121 30.931,1273.49 208.964,1470.5C153.867,1635.95 172.842,1817.39 260.978,1967.86C393.241,2198.16 660.917,2317.38 920.578,2261.66C1036.32,2392.07 1202.93,2466.32 1377.29,2465.22C1642.88,2465.92 1880.04,2293.76 1961.66,2041.02C2132.54,2006.04 2280.25,1898.88 2366.53,1747.29C2499.64,1517.63 2469,1226.39 2291,1029.47ZM1377.47,2306.5C1270.93,2306.66 1167.66,2269.33 1085.86,2201.08C1089.57,2199.07 1096.07,2195.55 1100.26,2192.93L1584.19,1913.42C1608.92,1899.37 1624.18,1872.95 1623.99,1844.51L1623.99,1162.18L1828.52,1280.31C1830.71,1281.38 1832.22,1283.49 1832.53,1285.9L1832.53,1850.95C1832.24,2100.57 1627.03,2305.94 1377.41,2306.44L1377.47,2306.5ZM398.792,1888.44C345.443,1796.25 326.205,1688.16 344.469,1583.22C348.115,1585.41 354.313,1589.24 358.87,1591.79L842.8,1871.31C867.322,1885.62 897.758,1885.62 922.28,1871.31L1513.15,1530.17L1513.15,1766.43C1513.3,1768.87 1512.2,1771.22 1510.24,1772.68L1021.02,2055.18C804.57,2179.85 523.905,2104.64 398.792,1888.44ZM271.49,831.988C324.633,739.654 408.627,668.917 508.655,632.254C508.655,636.386 508.412,643.8 508.412,648.904L508.412,1208C508.251,1236.39 523.477,1262.74 548.152,1276.79L1138.97,1617.92L934.433,1736.04C932.377,1737.4 929.766,1737.63 927.505,1736.65L438.168,1453.97C222.102,1328.85 146.937,1048.33 271.49,831.927L271.49,831.988ZM1952.12,1223.13L1361.24,881.936L1565.84,763.87C1567.88,762.542 1570.46,762.314 1572.7,763.263L2061.98,1045.7C2202.72,1127 2289.69,1277.68 2289.69,1440.21C2289.69,1630.64 2170.3,1801.87 1991.62,1867.72L1991.62,1291.91C1991.84,1263.57 1976.71,1237.22 1952.12,1223.13ZM2155.68,916.693C2152.1,914.445 2145.84,910.678 2141.34,908.126L1657.35,628.608C1632.82,614.302 1602.39,614.302 1577.87,628.608L987.055,969.741L987.055,733.488C986.915,731.047 988.012,728.692 989.971,727.229L1479.13,444.978C1548.34,405.05 1626.86,384.026 1706.76,384.026C1956.67,384.026 2162.32,589.67 2162.32,839.579C2162.32,865.423 2160.12,891.222 2155.74,916.693L2155.68,916.693ZM875.795,1337.73L671.2,1219.61C669.038,1218.52 667.556,1216.42 667.25,1214.02L667.25,648.965C667.458,399.199 873.037,193.791 1122.8,193.791C1229.25,193.791 1332.41,231.104 1414.23,299.203C1409.4,301.824 1404.62,304.538 1399.89,307.346L915.899,586.863C891.225,600.904 875.998,627.259 876.159,655.649L875.795,1337.73ZM986.933,1098.14L1250.04,946.164L1513.28,1098.08L1513.28,1401.9L1250.11,1553.81L986.933,1401.9L986.933,1098.14Z" style="ffill-rule:nonzero;" fill="white"/>
</svg>
