<svg width="28" height="28" fill="none" xmlns="http://www.w3.org/2000/svg"><path clip-rule="evenodd" d="M13.927 10.113c2.78 0 5.362.388 7.309 1.04 2.345.784 3.788 1.974 3.788 3.051 0 1.123-1.529 2.387-4.048 3.198-1.904.613-4.41.933-7.049.933-2.705 0-5.267-.3-7.193-.94-2.436-.81-3.904-2.09-3.904-3.19 0-1.07 1.377-2.25 3.69-3.034 1.954-.662 4.6-1.058 7.407-1.058Z" stroke="#0A7EA4" stroke-width="1.5"/><path clip-rule="evenodd" d="M10.262 12.169c1.389-2.34 3.024-4.32 4.578-5.635 1.871-1.582 3.652-2.202 4.612-1.664 1 .56 1.364 2.479.828 5.005-.404 1.91-1.371 4.18-2.69 6.401-1.35 2.278-2.898 4.285-4.43 5.586-1.94 1.647-3.813 2.244-4.795 1.693-.952-.533-1.317-2.283-.86-4.622.386-1.976 1.355-4.401 2.757-6.764Z" stroke="#0A7EA4" stroke-width="1.5"/><path clip-rule="evenodd" d="M10.266 16.284c-1.392-2.338-2.34-4.704-2.736-6.668-.477-2.367-.14-4.176.82-4.716 1-.562 2.89.09 4.875 1.803 1.5 1.295 3.04 3.242 4.362 5.462 1.356 2.275 2.372 4.58 2.767 6.52.5 2.455.095 4.331-.886 4.883-.951.535-2.692-.031-4.549-1.584-1.568-1.312-3.247-3.34-4.653-5.7Z" stroke="#0A7EA4" stroke-width="1.5"/><path d="M13.927 16.212c1.143 0 2.07-.901 2.07-2.012 0-1.112-.927-2.012-2.07-2.012-1.143 0-2.07.9-2.07 2.012 0 1.11.927 2.012 2.07 2.012Z" fill="#0A7EA4"/></svg>