<svg width="117" height="39" viewBox="0 0 117 39" fill="none" xmlns="http://www.w3.org/2000/svg">
<g clip-path="url(#clip0_122_9039)">
<path d="M109.269 12.3403L102.808 10.8269L101.654 10.3612L72 10.594V25.0299L109.269 25.1463V12.3403Z" fill="white"/>
<path d="M97.1541 23.7493C97.3398 23.2534 97.4052 22.72 97.345 22.1935C97.2848 21.6669 97.1007 21.1626 96.808 20.7224C96.5074 20.3587 96.1386 20.0584 95.7228 19.8387C95.307 19.619 94.8524 19.4841 94.3849 19.4418L74.308 19.209C74.1926 19.209 74.0772 19.0926 73.9618 19.0926C73.935 19.0722 73.9132 19.0459 73.8981 19.0155C73.8831 18.9852 73.8753 18.9518 73.8753 18.9179C73.8753 18.884 73.8831 18.8506 73.8981 18.8203C73.9132 18.79 73.935 18.7636 73.9618 18.7433C74.0772 18.5105 74.1926 18.394 74.4234 18.394L94.6157 18.1612C95.8976 18.0177 97.1185 17.5322 98.1527 16.7546C99.187 15.9771 99.9973 14.9356 100.5 13.7373L101.654 10.7105C101.654 10.594 101.77 10.4776 101.654 10.3612C101.027 7.54206 99.5046 5.00657 97.3186 3.14004C95.1327 1.27351 92.4026 0.177963 89.5432 0.0198806C86.6838 -0.138202 83.8514 0.64982 81.4765 2.2642C79.1015 3.87859 77.3138 6.23107 76.3849 8.9642C75.1791 8.09529 73.7083 7.68308 72.2311 7.80002C70.8754 7.95253 69.6114 8.56576 68.6469 9.53895C67.6823 10.5121 67.0745 11.7874 66.9234 13.1552C66.8466 13.8554 66.8855 14.5635 67.0388 15.2508C64.8452 15.3119 62.7619 16.2342 61.232 17.8213C59.702 19.4085 58.8462 21.5353 58.8465 23.7493C58.8275 24.1794 58.8663 24.6102 58.9618 25.0299C58.9671 25.1208 59.0053 25.2065 59.0691 25.2709C59.1329 25.3353 59.2179 25.3738 59.308 25.3791H96.3465C96.5772 25.3791 96.808 25.2627 96.808 25.0299L97.1541 23.7493Z" fill="#F48120"/>
<path d="M103.499 10.7104H102.923C102.807 10.7104 102.692 10.8269 102.576 10.9433L101.769 13.7373C101.583 14.2331 101.518 14.7666 101.578 15.2931C101.638 15.8197 101.822 16.324 102.115 16.7642C102.415 17.1279 102.784 17.4282 103.2 17.6479C103.616 17.8676 104.07 18.0025 104.538 18.0448L108.807 18.2776C108.923 18.2776 109.038 18.394 109.153 18.394C109.18 18.4144 109.202 18.4407 109.217 18.471C109.232 18.5013 109.24 18.5348 109.24 18.5687C109.24 18.6025 109.232 18.636 109.217 18.6663C109.202 18.6966 109.18 18.723 109.153 18.7433C109.038 18.9761 108.923 19.0925 108.692 19.0925L104.307 19.3254C103.025 19.4689 101.804 19.9544 100.77 20.7319C99.7358 21.5095 98.9255 22.5509 98.4225 23.7493L98.1917 24.797C98.0764 24.9134 98.1918 25.1463 98.4225 25.1463H113.653C113.7 25.153 113.748 25.1487 113.793 25.1335C113.838 25.1184 113.879 25.0928 113.913 25.059C113.946 25.0251 113.972 24.9838 113.987 24.9383C114.002 24.8928 114.006 24.8445 113.999 24.797C114.274 23.8106 114.429 22.7942 114.461 21.7702C114.443 18.8426 113.282 16.0403 111.23 13.9702C109.178 11.9 106.401 10.7289 103.499 10.7104Z" fill="#FAAD3F"/>
<path d="M115.962 31.6657C115.756 31.6657 115.555 31.6042 115.385 31.4891C115.214 31.374 115.081 31.2103 115.002 31.0189C114.924 30.8274 114.903 30.6167 114.943 30.4135C114.983 30.2103 115.082 30.0236 115.227 29.877C115.373 29.7305 115.558 29.6307 115.759 29.5903C115.96 29.5498 116.169 29.5706 116.359 29.6499C116.549 29.7292 116.711 29.8635 116.825 30.0358C116.939 30.2081 117 30.4107 117 30.6179C117.001 30.7557 116.974 30.8922 116.922 31.0195C116.87 31.1469 116.794 31.2627 116.697 31.3601C116.601 31.4575 116.486 31.5346 116.36 31.5871C116.233 31.6395 116.098 31.6662 115.962 31.6657ZM115.962 29.803C115.802 29.803 115.646 29.8508 115.513 29.9403C115.38 30.0299 115.277 30.1571 115.215 30.306C115.154 30.455 115.138 30.6188 115.169 30.7769C115.201 30.935 115.278 31.0802 115.39 31.1941C115.503 31.3081 115.647 31.3857 115.804 31.4172C115.961 31.4486 116.123 31.4325 116.271 31.3708C116.418 31.3091 116.544 31.2047 116.633 31.0707C116.722 30.9366 116.769 30.7791 116.769 30.6179C116.772 30.5102 116.753 30.403 116.713 30.303C116.673 30.2029 116.614 30.112 116.539 30.0358C116.463 29.9596 116.373 29.8997 116.274 29.8597C116.175 29.8196 116.068 29.8004 115.962 29.803ZM116.423 31.2H116.192L115.962 30.8507H115.731V31.2H115.5V30.1522H116.077C116.124 30.1455 116.172 30.1498 116.217 30.165C116.262 30.1801 116.303 30.2057 116.337 30.2396C116.37 30.2734 116.395 30.3147 116.411 30.3602C116.426 30.4057 116.43 30.454 116.423 30.5015C116.423 30.6179 116.308 30.7343 116.192 30.8507L116.423 31.2ZM116.077 30.6179C116.192 30.6179 116.192 30.6179 116.192 30.5015C116.193 30.4861 116.19 30.4708 116.184 30.4566C116.179 30.4423 116.17 30.4293 116.159 30.4184C116.149 30.4076 116.136 30.399 116.122 30.3933C116.107 30.3875 116.092 30.3847 116.077 30.3851H115.731V30.7343H116.077V30.6179ZM12.577 29.5701H15.1155V36.5552H19.5001V38.7672H12.577V29.5701ZM22.1539 34.1104C22.154 33.4638 22.2841 32.8239 22.5364 32.2294C22.7887 31.635 23.158 31.0984 23.6219 30.6521C24.0857 30.2059 24.6345 29.8593 25.235 29.6333C25.8355 29.4073 26.4753 29.3066 27.1155 29.3373C27.7497 29.3085 28.383 29.4113 28.9763 29.6395C29.5695 29.8676 30.11 30.2162 30.5643 30.6637C31.0186 31.1111 31.377 31.6479 31.6174 32.2408C31.8577 32.8337 31.9749 33.47 31.9616 34.1104C31.9616 34.7571 31.8314 35.397 31.5791 35.9915C31.3268 36.5859 30.9575 37.1225 30.4937 37.5688C30.0298 38.015 29.481 38.3616 28.8805 38.5876C28.28 38.8136 27.6403 38.9143 27.0001 38.8836C26.3683 38.9025 25.7392 38.7929 25.1504 38.5612C24.5615 38.3295 24.0249 37.9805 23.5727 37.5351C23.1204 37.0896 22.7617 36.5568 22.5179 35.9684C22.2742 35.38 22.1504 34.7481 22.1539 34.1104ZM29.4232 34.1104C29.4458 33.7877 29.4033 33.4637 29.2983 33.158C29.1933 32.8523 29.0279 32.5713 28.8122 32.3319C28.5965 32.0925 28.3349 31.8997 28.0433 31.7652C27.7517 31.6307 27.436 31.5572 27.1155 31.5492C26.4933 31.5799 25.9066 31.8508 25.477 32.306C25.0474 32.7611 24.8078 33.3655 24.8078 33.994C24.8078 34.6225 25.0474 35.227 25.477 35.6821C25.9066 36.1372 26.4933 36.4082 27.1155 36.4388C28.5001 36.6716 29.4232 35.5075 29.4232 34.1104ZM35.077 34.6925V29.5701H37.6155V34.6925C37.6155 35.9731 38.3078 36.6716 39.3462 36.6716C39.5888 36.692 39.8327 36.6567 40.0598 36.5686C40.287 36.4804 40.4914 36.3415 40.6578 36.1624C40.8243 35.9832 40.9484 35.7685 41.021 35.5341C41.0936 35.2997 41.1127 35.0518 41.077 34.8089V29.5701H43.6155V34.6925C43.6155 37.7194 41.8847 39 39.3462 39C36.6924 38.8836 35.077 37.603 35.077 34.6925ZM47.4231 29.5701H51.0001C54.2308 29.5701 56.1924 31.4328 56.1924 34.1104C56.1924 36.7881 54.2308 38.7672 51.0001 38.7672H47.5385V29.5701H47.4231ZM51.0001 36.4388C51.3216 36.4698 51.646 36.4326 51.9525 36.3297C52.259 36.2267 52.5407 36.0603 52.7797 35.8411C53.0187 35.6219 53.2097 35.3547 53.3404 35.0567C53.471 34.7586 53.5385 34.4363 53.5385 34.1104C53.5385 33.7845 53.471 33.4623 53.3404 33.1642C53.2097 32.8662 53.0187 32.599 52.7797 32.3798C52.5407 32.1605 52.259 31.9941 51.9525 31.8912C51.646 31.7883 51.3216 31.7511 51.0001 31.7821H49.9616V36.4388H51.0001ZM59.7693 29.5701H67.0385V31.7821H62.3078V33.2955H66.577V35.391H62.3078V38.7672H59.7693V29.5701ZM70.6155 29.5701H73.1539V36.5552H77.5385V38.7672H70.6155V29.5701ZM84.1155 29.4537H86.6539L90.577 38.7672H87.8078L87.1155 37.1373H83.5385L82.8462 38.7672H80.1924L84.1155 29.4537ZM86.4231 35.1582L85.3847 32.597L84.3462 35.1582H86.4231ZM93.8078 29.5701H98.077C98.6217 29.5256 99.1697 29.5957 99.6861 29.776C100.203 29.9564 100.676 30.2431 101.077 30.6179C101.408 30.9775 101.647 31.4122 101.776 31.8852C101.905 32.3581 101.919 32.8554 101.818 33.3351C101.716 33.8147 101.501 34.2625 101.191 34.6406C100.882 35.0188 100.486 35.3161 100.039 35.5075L102.231 38.7672H99.3462L97.5001 35.9731H96.3462V38.7672H93.8078V29.5701ZM97.9616 33.994C98.7693 33.994 99.3462 33.5284 99.3462 32.9463C99.3462 32.2478 98.7693 31.8985 97.9616 31.8985H96.3462V34.1104H97.9616V33.994ZM105.462 29.5701H112.846V31.6657H108V33.0627H112.385V35.1582H108V36.5552H112.962V38.7672H105.462V29.5701ZM7.03854 35.2746C6.86451 35.686 6.57535 36.0373 6.20645 36.2855C5.83756 36.5336 5.40495 36.6678 4.96161 36.6716C4.33942 36.641 3.75276 36.37 3.32315 35.9149C2.89354 35.4598 2.65392 34.8554 2.65392 34.2269C2.65392 33.5984 2.89354 32.9939 3.32315 32.5388C3.75276 32.0837 4.33942 31.8127 4.96161 31.7821C5.43348 31.7912 5.89241 31.9394 6.28192 32.2083C6.67144 32.4771 6.97453 32.8551 7.15392 33.2955H9.80777C9.58075 32.1803 8.96931 31.1825 8.08207 30.4791C7.19483 29.7757 6.08922 29.4124 4.96161 29.4537C4.32379 29.4328 3.68823 29.5402 3.09201 29.7698C2.49579 29.9994 1.95085 30.3464 1.48899 30.7907C1.02713 31.2351 0.657603 31.7677 0.401968 32.3577C0.146333 32.9476 0.00971147 33.5831 7.43144e-05 34.2269C-0.00347738 34.8646 0.120314 35.4964 0.364065 36.0848C0.607815 36.6732 0.966529 37.206 1.41881 37.6515C1.87108 38.0969 2.40766 38.4459 2.99652 38.6776C3.58538 38.9093 4.21446 39.0189 4.84623 39C5.94868 39.0075 7.02247 38.6459 7.89941 37.9717C8.77636 37.2976 9.40694 36.349 9.69238 35.2746H7.03854Z" fill="#404041"/>
</g>
<defs>
<clipPath id="clip0_122_9039">
<rect width="117" height="39" fill="white"/>
</clipPath>
</defs>
</svg>
