<svg width="146" height="26" viewBox="0 0 146 26" fill="none" xmlns="http://www.w3.org/2000/svg">
<path fill-rule="evenodd" clip-rule="evenodd" d="M19.3374 0C27.5817 0.206845 27.9673 3.17013 27.9436 7.49307C29.4744 5.59883 31.2434 4.32048 33.0208 4.28957C38.1643 4.20013 39.9564 10.9978 40.5733 15.2231C41.2117 15.2564 41.7619 15.35 42.2051 15.5432C42.1512 14.814 42.0969 13.7011 42.1414 12.5084C41.5939 12.2347 41.1091 11.6991 40.7412 10.7793C39.267 7.09369 47.1072 4.94936 47.1072 4.94936C49.3378 4.11288 55.0026 3.55484 56.9955 6.59661C63.7679 4.16587 76.7687 2.38955 76.5785 8.0569C77.2104 8.78317 77.8909 9.49819 78.7281 10.0177C79.4141 9.24213 80.1048 8.54809 80.7712 7.97424C85.596 3.8196 87.0332 3.5006 89.0805 5.22682C91.5487 7.3078 89.5081 9.21404 86.4928 12.0309C85.3329 13.1144 84.0289 14.3327 82.7817 15.7474C80.6149 18.3382 79.2427 20.451 78.2259 22.0166C76.3498 24.9055 75.6835 25.9315 73.4671 24.6598C71.3335 23.4356 72.578 19.2984 74.9478 15.2574C73.3181 14.0607 71.6223 12.0734 70.6192 10.1711C70.0663 10.1905 69.4869 10.213 68.8868 10.2431C68.3175 14.6468 68.8565 17.9884 69.2427 20.3829C69.6311 22.7908 69.865 24.2411 68.6621 24.8508C63.0044 27.4604 61.8673 14.5178 61.7879 11.1043C60.2444 11.4448 58.7081 11.9157 57.2525 12.5737C56.5702 14.7289 55.2018 16.2514 53.7042 17.3191C53.9566 17.4402 54.2147 17.5613 54.4786 17.6812C54.9388 17.8904 55.3859 18.0902 55.8167 18.2826C59.5256 19.9395 62.0201 21.0538 61.1796 22.975C60.0404 25.7895 50.927 21.8359 50.927 21.8359C50.927 21.8359 49.4807 21.2543 48.1002 20.3304C48.5965 23.0027 48.7518 24.6135 46.7741 25.1195C44.2854 25.7561 43.1142 21.6049 42.6135 18.812C42.1955 19.1299 41.6337 19.4037 40.9683 19.6381C40.9811 19.7622 40.9948 19.8895 41.0087 20.0192C41.2482 22.2471 41.5643 25.1888 38.942 25.1888C36.8124 25.3414 36.1183 22.9947 35.7699 20.6378C35.5104 20.6629 35.2494 20.6858 34.9879 20.7063C34.506 20.7442 34.0233 20.7866 33.5445 20.8287C32.4318 20.9264 31.3404 21.0222 30.333 21.0555C30.0755 22.4348 29.4373 24.1876 26.6028 24.1237C22.4915 24.1355 22.6741 18.2811 24.832 12.9305C21.831 15.4967 17.5026 17.3046 15.8142 17.7577C15.7515 17.7745 15.6904 17.791 15.6309 17.8072C15.7175 18.017 15.804 18.2252 15.8896 18.4313C17.334 21.9078 18.5464 24.8259 16.3299 25.7234C12.4814 27.2816 10.4376 21.8981 9.32483 18.5384C8.26166 18.1047 7.75986 16.2331 7.65313 15.5928C7.54931 14.9698 7.61439 14.4828 7.82489 14.0857C7.43729 12.9255 7.06974 11.7473 6.80297 10.6181C6.17626 11.1241 5.74644 11.5893 5.38962 11.9754C4.77396 12.6416 4.37565 13.0726 3.55837 13.0726C0.860862 13.0726 -0.000212771 9.86406 0.00037606 8.61084C-0.0729564 4.24731 10.5931 0 19.3374 0ZM13.1459 7.61424C13.1835 7.92255 13.2194 8.24344 13.2566 8.57528C13.3575 9.4768 13.4675 10.4591 13.645 11.4893C16.0094 10.6824 20.7484 7.96237 20.4802 7.10428C20.1625 6.08752 15.5417 6.84747 13.2177 7.5932L13.1459 7.61424ZM34.9634 15.471C34.4716 13.4673 33.7786 11.5928 33.0208 11.5928C32.1112 11.5928 31.5244 13.4319 31.1375 15.4408L31.2452 15.4442C32.0158 15.4689 32.8392 15.4952 33.7029 15.4952C34.1305 15.4952 34.5512 15.4861 34.9634 15.471ZM47.2784 11.2044C47.2743 11.4024 47.2695 11.6038 47.2646 11.8077C47.2423 12.7365 47.2187 13.7197 47.2647 14.6924L47.2862 14.6842C47.294 14.6812 47.3013 14.6782 47.3082 14.6753C51.3959 12.904 53.2722 10.9133 53.1381 10.3102C52.401 9.17101 49.0505 10.3988 47.3082 11.1908L47.2784 11.2044Z" fill="#2C2C2C"/>
<path d="M105.411 6.25421C105.374 6.60892 105.341 6.92635 105.329 7.18687C106.259 6.54288 107.284 5.93363 108.295 5.33245C108.45 5.24031 108.605 5.14836 108.759 5.0565C112.903 2.58355 117.667 0.471933 119.919 3.52191C121.188 5.23973 119.526 6.41897 116.737 8.39665C115.847 9.02828 114.842 9.74134 113.78 10.5794L113.535 10.7734C111.979 12.0021 110.531 13.1464 109.208 14.0449C111.872 15.3491 114.386 16.4108 116.531 17.3162C118.436 18.1207 120.05 18.8019 121.216 19.4203C121.208 19.3439 121.204 19.2817 121.202 19.236C121.2 19.1841 121.196 19.111 121.191 19.0197C121.116 17.7677 120.838 13.1005 124.466 13.0046C128.142 12.8463 127.846 16.9508 127.575 19.9542C127.54 20.34 127.514 20.711 127.489 21.0648C127.32 23.4653 127.207 25.0775 124.831 25.1936C123.742 25.2468 122.948 24.4281 122.385 23.3772C119.302 25.69 108.749 22.1015 104.444 20.1524C104.412 20.3582 104.382 20.5661 104.351 20.7746C103.973 23.3405 103.581 26 100.567 26C97.5114 26 96.4941 20.5815 96.4941 11.9726C96.4941 3.3636 97.0064 0 101.933 0C106.06 0 105.652 3.92846 105.411 6.25421Z" fill="#2C2C2C"/>
<path d="M128.422 8.69505C128.072 10.3076 125.94 11.265 124.179 11.265C122.254 11.265 120.35 9.92364 120.35 8.03089C120.35 6.13813 122.353 4.76465 124.277 4.76465C125.242 4.76465 126.293 5.15946 127.102 5.79168C127.591 3.58772 130.177 3.5881 132.933 3.58851L133.045 3.58852C135.283 3.58852 136.917 3.39924 138.386 3.22903C138.966 3.16185 139.52 3.09764 140.076 3.0492C140.41 3.02009 140.796 2.96336 141.207 2.90296C143.213 2.60835 145.813 2.2264 145.888 4.53492C145.979 7.31671 142.696 8.30902 138.778 8.84537C138.394 11.5987 138.058 15.8799 137.808 19.0631L137.773 19.5C137.488 23.123 136.954 25.1996 134.42 25.2619C131.813 25.1825 131.482 21.5677 131.482 20.3362L131.482 20.1964C131.479 19.0782 131.463 13.0893 132.316 9.32181C132.145 9.32743 131.98 9.33228 131.821 9.33643C131.821 9.33643 129.839 9.41907 128.422 8.69505Z" fill="#2C2C2C"/>
</svg>
